<?xml version="1.0" encoding="utf-8" standalone="no"?>
<!DOCTYPE svg PUBLIC "-//W3C//DTD SVG 1.1//EN"
  "http://www.w3.org/Graphics/SVG/1.1/DTD/svg11.dtd">
<!-- Created with matplotlib (http://matplotlib.org/) -->
<svg height="222.468438pt" version="1.1" viewBox="0 0 290.35 222.468438" width="290.35pt" xmlns="http://www.w3.org/2000/svg" xmlns:xlink="http://www.w3.org/1999/xlink">
 <defs>
  <style type="text/css">
*{stroke-linecap:butt;stroke-linejoin:round;}
  </style>
 </defs>
 <g id="figure_1">
  <g id="patch_1">
   <path d="M 0 222.468438 
L 290.35 222.468438 
L 290.35 0 
L 0 0 
z
" style="fill:#ffffff;"/>
  </g>
  <g id="axes_1">
   <g id="patch_2">
    <path d="M 56.45 177.02 
L 279.65 177.02 
L 279.65 10.7 
L 56.45 10.7 
z
" style="fill:#ffffff;"/>
   </g>
   <g id="PathCollection_1">
    <defs>
     <path d="M 0 3 
C 0.795609 3 1.55874 2.683901 2.12132 2.12132 
C 2.683901 1.55874 3 0.795609 3 0 
C 3 -0.795609 2.683901 -1.55874 2.12132 -2.12132 
C 1.55874 -2.683901 0.795609 -3 0 -3 
C -0.795609 -3 -1.55874 -2.683901 -2.12132 -2.12132 
C -2.683901 -1.55874 -3 -0.795609 -3 0 
C -3 0.795609 -2.683901 1.55874 -2.12132 2.12132 
C -1.55874 2.683901 -0.795609 3 0 3 
z
" id="me378fd9629" style="stroke:#808000;"/>
    </defs>
    <g clip-path="url(#p1140edb813)">
     <use style="fill:#808000;stroke:#808000;" x="70.4" xlink:href="#me378fd9629" y="119.564"/>
     <use style="fill:#808000;stroke:#808000;" x="98.3" xlink:href="#me378fd9629" y="118.052"/>
     <use style="fill:#808000;stroke:#808000;" x="126.2" xlink:href="#me378fd9629" y="116.54"/>
     <use style="fill:#808000;stroke:#808000;" x="154.1" xlink:href="#me378fd9629" y="116.54"/>
     <use style="fill:#808000;stroke:#808000;" x="182" xlink:href="#me378fd9629" y="115.784"/>
     <use style="fill:#808000;stroke:#808000;" x="209.9" xlink:href="#me378fd9629" y="115.028"/>
     <use style="fill:#808000;stroke:#808000;" x="237.8" xlink:href="#me378fd9629" y="115.028"/>
     <use style="fill:#808000;stroke:#808000;" x="265.7" xlink:href="#me378fd9629" y="115.028"/>
    </g>
   </g>
   <g id="matplotlib.axis_1">
    <g id="xtick_1">
     <g id="line2d_1">
      <defs>
       <path d="M 0 0 
L 0 3.5 
" id="md72dc5a7bc" style="stroke:#000000;stroke-width:0.8;"/>
      </defs>
      <g>
       <use style="stroke:#000000;stroke-width:0.8;" x="70.4" xlink:href="#md72dc5a7bc" y="177.02"/>
      </g>
     </g>
     <g id="text_1">
      <!-- 1 -->
      <defs>
       <path d="M 11.71875 59.71875 
L 27.828125 67.578125 
L 29.4375 67.578125 
L 29.4375 11.671875 
Q 29.4375 6.109375 29.90625 4.734375 
Q 30.375 3.375 31.828125 2.640625 
Q 33.296875 1.90625 37.796875 1.8125 
L 37.796875 0 
L 12.890625 0 
L 12.890625 1.8125 
Q 17.578125 1.90625 18.9375 2.609375 
Q 20.3125 3.328125 20.84375 4.515625 
Q 21.390625 5.71875 21.390625 11.671875 
L 21.390625 47.40625 
Q 21.390625 54.640625 20.90625 56.6875 
Q 20.5625 58.25 19.65625 58.984375 
Q 18.75 59.71875 17.484375 59.71875 
Q 15.671875 59.71875 12.453125 58.203125 
z
" id="TimesNewRomanPSMT-31"/>
      </defs>
      <g transform="translate(66.65 194.435625)scale(0.15 -0.15)">
       <use xlink:href="#TimesNewRomanPSMT-31"/>
      </g>
     </g>
    </g>
    <g id="xtick_2">
     <g id="line2d_2">
      <g>
       <use style="stroke:#000000;stroke-width:0.8;" x="98.3" xlink:href="#md72dc5a7bc" y="177.02"/>
      </g>
     </g>
     <g id="text_2">
      <!-- 2 -->
      <defs>
       <path d="M 45.84375 12.75 
L 41.21875 0 
L 2.15625 0 
L 2.15625 1.8125 
Q 19.390625 17.53125 26.421875 27.484375 
Q 33.453125 37.453125 33.453125 45.703125 
Q 33.453125 52 29.59375 56.046875 
Q 25.734375 60.109375 20.359375 60.109375 
Q 15.484375 60.109375 11.59375 57.25 
Q 7.71875 54.390625 5.859375 48.875 
L 4.046875 48.875 
Q 5.28125 57.90625 10.328125 62.734375 
Q 15.375 67.578125 22.953125 67.578125 
Q 31 67.578125 36.390625 62.40625 
Q 41.796875 57.234375 41.796875 50.203125 
Q 41.796875 45.171875 39.453125 40.140625 
Q 35.84375 32.234375 27.734375 23.390625 
Q 15.578125 10.109375 12.546875 7.375 
L 29.828125 7.375 
Q 35.109375 7.375 37.234375 7.765625 
Q 39.359375 8.15625 41.0625 9.34375 
Q 42.78125 10.546875 44.046875 12.75 
z
" id="TimesNewRomanPSMT-32"/>
      </defs>
      <g transform="translate(94.55 194.435625)scale(0.15 -0.15)">
       <use xlink:href="#TimesNewRomanPSMT-32"/>
      </g>
     </g>
    </g>
    <g id="xtick_3">
     <g id="line2d_3">
      <g>
       <use style="stroke:#000000;stroke-width:0.8;" x="126.2" xlink:href="#md72dc5a7bc" y="177.02"/>
      </g>
     </g>
     <g id="text_3">
      <!-- 3 -->
      <defs>
       <path d="M 5.078125 53.609375 
Q 7.90625 60.296875 12.21875 63.9375 
Q 16.546875 67.578125 23 67.578125 
Q 30.953125 67.578125 35.203125 62.40625 
Q 38.421875 58.546875 38.421875 54.15625 
Q 38.421875 46.921875 29.34375 39.203125 
Q 35.453125 36.8125 38.578125 32.375 
Q 41.703125 27.9375 41.703125 21.921875 
Q 41.703125 13.328125 36.234375 7.03125 
Q 29.109375 -1.171875 15.578125 -1.171875 
Q 8.890625 -1.171875 6.46875 0.484375 
Q 4.046875 2.15625 4.046875 4.046875 
Q 4.046875 5.46875 5.1875 6.546875 
Q 6.34375 7.625 7.953125 7.625 
Q 9.1875 7.625 10.453125 7.234375 
Q 11.28125 6.984375 14.203125 5.4375 
Q 17.140625 3.90625 18.265625 3.609375 
Q 20.0625 3.078125 22.125 3.078125 
Q 27.09375 3.078125 30.78125 6.9375 
Q 34.46875 10.796875 34.46875 16.0625 
Q 34.46875 19.921875 32.765625 23.578125 
Q 31.5 26.3125 29.984375 27.734375 
Q 27.875 29.6875 24.21875 31.265625 
Q 20.5625 32.859375 16.75 32.859375 
L 15.1875 32.859375 
L 15.1875 34.328125 
Q 19.046875 34.8125 22.921875 37.109375 
Q 26.8125 39.40625 28.5625 42.625 
Q 30.328125 45.84375 30.328125 49.703125 
Q 30.328125 54.734375 27.171875 57.828125 
Q 24.03125 60.9375 19.34375 60.9375 
Q 11.765625 60.9375 6.6875 52.828125 
z
" id="TimesNewRomanPSMT-33"/>
      </defs>
      <g transform="translate(122.45 194.435625)scale(0.15 -0.15)">
       <use xlink:href="#TimesNewRomanPSMT-33"/>
      </g>
     </g>
    </g>
    <g id="xtick_4">
     <g id="line2d_4">
      <g>
       <use style="stroke:#000000;stroke-width:0.8;" x="154.1" xlink:href="#md72dc5a7bc" y="177.02"/>
      </g>
     </g>
     <g id="text_4">
      <!-- 4 -->
      <defs>
       <path d="M 46.53125 24.421875 
L 46.53125 17.484375 
L 37.640625 17.484375 
L 37.640625 0 
L 29.59375 0 
L 29.59375 17.484375 
L 1.5625 17.484375 
L 1.5625 23.734375 
L 32.28125 67.578125 
L 37.640625 67.578125 
L 37.640625 24.421875 
z
M 29.59375 24.421875 
L 29.59375 57.28125 
L 6.34375 24.421875 
z
" id="TimesNewRomanPSMT-34"/>
      </defs>
      <g transform="translate(150.35 194.435625)scale(0.15 -0.15)">
       <use xlink:href="#TimesNewRomanPSMT-34"/>
      </g>
     </g>
    </g>
    <g id="xtick_5">
     <g id="line2d_5">
      <g>
       <use style="stroke:#000000;stroke-width:0.8;" x="182" xlink:href="#md72dc5a7bc" y="177.02"/>
      </g>
     </g>
     <g id="text_5">
      <!-- 5 -->
      <defs>
       <path d="M 43.40625 66.21875 
L 39.59375 57.90625 
L 19.671875 57.90625 
L 15.328125 49.03125 
Q 28.265625 47.125 35.84375 39.40625 
Q 42.328125 32.765625 42.328125 23.78125 
Q 42.328125 18.5625 40.203125 14.109375 
Q 38.09375 9.671875 34.859375 6.546875 
Q 31.640625 3.421875 27.6875 1.515625 
Q 22.078125 -1.171875 16.15625 -1.171875 
Q 10.203125 -1.171875 7.484375 0.84375 
Q 4.78125 2.875 4.78125 5.328125 
Q 4.78125 6.6875 5.90625 7.734375 
Q 7.03125 8.796875 8.734375 8.796875 
Q 10.015625 8.796875 10.96875 8.40625 
Q 11.921875 8.015625 14.203125 6.390625 
Q 17.875 3.859375 21.625 3.859375 
Q 27.34375 3.859375 31.65625 8.171875 
Q 35.984375 12.5 35.984375 18.703125 
Q 35.984375 24.703125 32.125 29.90625 
Q 28.265625 35.109375 21.484375 37.9375 
Q 16.15625 40.140625 6.984375 40.484375 
L 19.671875 66.21875 
z
" id="TimesNewRomanPSMT-35"/>
      </defs>
      <g transform="translate(178.25 194.435625)scale(0.15 -0.15)">
       <use xlink:href="#TimesNewRomanPSMT-35"/>
      </g>
     </g>
    </g>
    <g id="xtick_6">
     <g id="line2d_6">
      <g>
       <use style="stroke:#000000;stroke-width:0.8;" x="209.9" xlink:href="#md72dc5a7bc" y="177.02"/>
      </g>
     </g>
     <g id="text_6">
      <!-- 6 -->
      <defs>
       <path d="M 44.828125 67.578125 
L 44.828125 65.765625 
Q 38.375 65.140625 34.296875 63.203125 
Q 30.21875 61.28125 26.234375 57.328125 
Q 22.265625 53.375 19.65625 48.515625 
Q 17.046875 43.65625 15.28125 36.96875 
Q 22.3125 41.796875 29.390625 41.796875 
Q 36.1875 41.796875 41.15625 36.328125 
Q 46.140625 30.859375 46.140625 22.265625 
Q 46.140625 13.96875 41.109375 7.125 
Q 35.0625 -1.171875 25.09375 -1.171875 
Q 18.3125 -1.171875 13.578125 3.328125 
Q 4.296875 12.0625 4.296875 25.984375 
Q 4.296875 34.859375 7.859375 42.859375 
Q 11.421875 50.875 18.03125 57.078125 
Q 24.65625 63.28125 30.703125 65.421875 
Q 36.765625 67.578125 42 67.578125 
z
M 14.453125 33.40625 
Q 13.578125 26.8125 13.578125 22.75 
Q 13.578125 18.0625 15.3125 12.5625 
Q 17.046875 7.078125 20.453125 3.859375 
Q 22.953125 1.5625 26.515625 1.5625 
Q 30.765625 1.5625 34.109375 5.5625 
Q 37.453125 9.578125 37.453125 17 
Q 37.453125 25.34375 34.125 31.4375 
Q 30.8125 37.546875 24.703125 37.546875 
Q 22.859375 37.546875 20.734375 36.765625 
Q 18.609375 35.984375 14.453125 33.40625 
z
" id="TimesNewRomanPSMT-36"/>
      </defs>
      <g transform="translate(206.15 194.435625)scale(0.15 -0.15)">
       <use xlink:href="#TimesNewRomanPSMT-36"/>
      </g>
     </g>
    </g>
    <g id="xtick_7">
     <g id="line2d_7">
      <g>
       <use style="stroke:#000000;stroke-width:0.8;" x="237.8" xlink:href="#md72dc5a7bc" y="177.02"/>
      </g>
     </g>
     <g id="text_7">
      <!-- 7 -->
      <defs>
       <path d="M 10.0625 66.21875 
L 45.5625 66.21875 
L 45.5625 64.359375 
L 23.484375 -1.375 
L 18.015625 -1.375 
L 37.796875 58.25 
L 19.578125 58.25 
Q 14.0625 58.25 11.71875 56.9375 
Q 7.625 54.6875 5.125 50 
L 3.71875 50.53125 
z
" id="TimesNewRomanPSMT-37"/>
      </defs>
      <g transform="translate(234.05 194.435625)scale(0.15 -0.15)">
       <use xlink:href="#TimesNewRomanPSMT-37"/>
      </g>
     </g>
    </g>
    <g id="xtick_8">
     <g id="line2d_8">
      <g>
       <use style="stroke:#000000;stroke-width:0.8;" x="265.7" xlink:href="#md72dc5a7bc" y="177.02"/>
      </g>
     </g>
     <g id="text_8">
      <!-- 8 -->
      <defs>
       <path d="M 19.1875 33.34375 
Q 11.328125 39.796875 9.046875 43.703125 
Q 6.78125 47.609375 6.78125 51.8125 
Q 6.78125 58.25 11.765625 62.90625 
Q 16.75 67.578125 25 67.578125 
Q 33.015625 67.578125 37.890625 63.234375 
Q 42.78125 58.890625 42.78125 53.328125 
Q 42.78125 49.609375 40.140625 45.75 
Q 37.5 41.890625 29.15625 36.671875 
Q 37.75 30.03125 40.53125 26.21875 
Q 44.234375 21.234375 44.234375 15.71875 
Q 44.234375 8.734375 38.90625 3.78125 
Q 33.59375 -1.171875 24.953125 -1.171875 
Q 15.53125 -1.171875 10.25 4.734375 
Q 6.0625 9.46875 6.0625 15.09375 
Q 6.0625 19.484375 9.015625 23.796875 
Q 11.96875 28.125 19.1875 33.34375 
z
M 26.859375 38.578125 
Q 32.71875 43.84375 34.28125 46.890625 
Q 35.84375 49.953125 35.84375 53.8125 
Q 35.84375 58.9375 32.953125 61.84375 
Q 30.078125 64.75 25.09375 64.75 
Q 20.125 64.75 17 61.859375 
Q 13.875 58.984375 13.875 55.125 
Q 13.875 52.59375 15.15625 50.046875 
Q 16.453125 47.515625 18.84375 45.21875 
z
M 21.484375 31.5 
Q 17.4375 28.078125 15.484375 24.046875 
Q 13.53125 20.015625 13.53125 15.328125 
Q 13.53125 9.03125 16.96875 5.25 
Q 20.40625 1.46875 25.734375 1.46875 
Q 31 1.46875 34.171875 4.4375 
Q 37.359375 7.421875 37.359375 11.671875 
Q 37.359375 15.1875 35.5 17.96875 
Q 32.03125 23.140625 21.484375 31.5 
z
" id="TimesNewRomanPSMT-38"/>
      </defs>
      <g transform="translate(261.95 194.435625)scale(0.15 -0.15)">
       <use xlink:href="#TimesNewRomanPSMT-38"/>
      </g>
     </g>
    </g>
    <g id="text_9">
     <!-- Iteration -->
     <defs>
      <path d="M 30.859375 1.8125 
L 30.859375 0 
L 2.484375 0 
L 2.484375 1.8125 
L 4.828125 1.8125 
Q 8.9375 1.8125 10.796875 4.203125 
Q 11.96875 5.765625 11.96875 11.71875 
L 11.96875 54.5 
Q 11.96875 59.515625 11.328125 61.140625 
Q 10.84375 62.359375 9.328125 63.234375 
Q 7.171875 64.40625 4.828125 64.40625 
L 2.484375 64.40625 
L 2.484375 66.21875 
L 30.859375 66.21875 
L 30.859375 64.40625 
L 28.46875 64.40625 
Q 24.421875 64.40625 22.5625 62.015625 
Q 21.34375 60.453125 21.34375 54.5 
L 21.34375 11.71875 
Q 21.34375 6.6875 21.96875 5.078125 
Q 22.46875 3.859375 24.03125 2.984375 
Q 26.125 1.8125 28.46875 1.8125 
z
" id="TimesNewRomanPSMT-49"/>
      <path d="M 16.109375 59.421875 
L 16.109375 44.734375 
L 26.5625 44.734375 
L 26.5625 41.3125 
L 16.109375 41.3125 
L 16.109375 12.3125 
Q 16.109375 7.953125 17.359375 6.4375 
Q 18.609375 4.9375 20.5625 4.9375 
Q 22.171875 4.9375 23.6875 5.9375 
Q 25.203125 6.9375 26.03125 8.890625 
L 27.9375 8.890625 
Q 26.21875 4.109375 23.09375 1.6875 
Q 19.96875 -0.734375 16.65625 -0.734375 
Q 14.40625 -0.734375 12.25 0.515625 
Q 10.109375 1.765625 9.078125 4.078125 
Q 8.0625 6.390625 8.0625 11.234375 
L 8.0625 41.3125 
L 0.984375 41.3125 
L 0.984375 42.921875 
Q 3.65625 44 6.46875 46.5625 
Q 9.28125 49.125 11.46875 52.640625 
Q 12.59375 54.5 14.59375 59.421875 
z
" id="TimesNewRomanPSMT-74"/>
      <path d="M 10.640625 27.875 
Q 10.59375 17.921875 15.484375 12.25 
Q 20.359375 6.59375 26.953125 6.59375 
Q 31.34375 6.59375 34.59375 9 
Q 37.84375 11.421875 40.046875 17.28125 
L 41.546875 16.3125 
Q 40.53125 9.625 35.59375 4.125 
Q 30.671875 -1.375 23.25 -1.375 
Q 15.1875 -1.375 9.453125 4.90625 
Q 3.71875 11.1875 3.71875 21.78125 
Q 3.71875 33.25 9.59375 39.671875 
Q 15.484375 46.09375 24.359375 46.09375 
Q 31.890625 46.09375 36.71875 41.140625 
Q 41.546875 36.1875 41.546875 27.875 
z
M 10.640625 30.71875 
L 31.34375 30.71875 
Q 31.109375 35.015625 30.328125 36.765625 
Q 29.109375 39.5 26.6875 41.0625 
Q 24.265625 42.625 21.625 42.625 
Q 17.578125 42.625 14.375 39.46875 
Q 11.1875 36.328125 10.640625 30.71875 
z
" id="TimesNewRomanPSMT-65"/>
      <path d="M 16.21875 46.046875 
L 16.21875 35.984375 
Q 21.828125 46.046875 27.734375 46.046875 
Q 30.421875 46.046875 32.171875 44.40625 
Q 33.9375 42.78125 33.9375 40.625 
Q 33.9375 38.71875 32.65625 37.390625 
Q 31.390625 36.078125 29.640625 36.078125 
Q 27.9375 36.078125 25.8125 37.765625 
Q 23.6875 39.453125 22.65625 39.453125 
Q 21.78125 39.453125 20.75 38.484375 
Q 18.5625 36.46875 16.21875 31.890625 
L 16.21875 10.453125 
Q 16.21875 6.734375 17.140625 4.828125 
Q 17.78125 3.515625 19.390625 2.640625 
Q 21 1.765625 24.03125 1.765625 
L 24.03125 0 
L 1.125 0 
L 1.125 1.765625 
Q 4.546875 1.765625 6.203125 2.828125 
Q 7.421875 3.609375 7.90625 5.328125 
Q 8.15625 6.15625 8.15625 10.0625 
L 8.15625 27.390625 
Q 8.15625 35.203125 7.828125 36.6875 
Q 7.515625 38.1875 6.65625 38.859375 
Q 5.8125 39.546875 4.546875 39.546875 
Q 3.03125 39.546875 1.125 38.8125 
L 0.640625 40.578125 
L 14.15625 46.046875 
z
" id="TimesNewRomanPSMT-72"/>
      <path d="M 28.46875 6.453125 
Q 21.578125 1.125 19.828125 0.296875 
Q 17.1875 -0.921875 14.203125 -0.921875 
Q 9.578125 -0.921875 6.5625 2.25 
Q 3.5625 5.421875 3.5625 10.59375 
Q 3.5625 13.875 5.03125 16.265625 
Q 7.03125 19.578125 11.984375 22.5 
Q 16.9375 25.4375 28.46875 29.640625 
L 28.46875 31.390625 
Q 28.46875 38.09375 26.34375 40.578125 
Q 24.21875 43.0625 20.171875 43.0625 
Q 17.09375 43.0625 15.28125 41.40625 
Q 13.421875 39.75 13.421875 37.59375 
L 13.53125 34.765625 
Q 13.53125 32.515625 12.375 31.296875 
Q 11.234375 30.078125 9.375 30.078125 
Q 7.5625 30.078125 6.421875 31.34375 
Q 5.28125 32.625 5.28125 34.8125 
Q 5.28125 39.015625 9.578125 42.53125 
Q 13.875 46.046875 21.625 46.046875 
Q 27.59375 46.046875 31.390625 44.046875 
Q 34.28125 42.53125 35.640625 39.3125 
Q 36.53125 37.203125 36.53125 30.71875 
L 36.53125 15.53125 
Q 36.53125 9.125 36.765625 7.6875 
Q 37.015625 6.25 37.578125 5.765625 
Q 38.140625 5.28125 38.875 5.28125 
Q 39.65625 5.28125 40.234375 5.609375 
Q 41.265625 6.25 44.1875 9.1875 
L 44.1875 6.453125 
Q 38.71875 -0.875 33.734375 -0.875 
Q 31.34375 -0.875 29.921875 0.78125 
Q 28.515625 2.4375 28.46875 6.453125 
z
M 28.46875 9.625 
L 28.46875 26.65625 
Q 21.09375 23.734375 18.953125 22.515625 
Q 15.09375 20.359375 13.421875 18.015625 
Q 11.765625 15.671875 11.765625 12.890625 
Q 11.765625 9.375 13.859375 7.046875 
Q 15.96875 4.734375 18.703125 4.734375 
Q 22.40625 4.734375 28.46875 9.625 
z
" id="TimesNewRomanPSMT-61"/>
      <path d="M 14.5 69.4375 
Q 16.546875 69.4375 17.984375 67.984375 
Q 19.4375 66.546875 19.4375 64.5 
Q 19.4375 62.453125 17.984375 60.984375 
Q 16.546875 59.515625 14.5 59.515625 
Q 12.453125 59.515625 10.984375 60.984375 
Q 9.515625 62.453125 9.515625 64.5 
Q 9.515625 66.546875 10.953125 67.984375 
Q 12.40625 69.4375 14.5 69.4375 
z
M 18.5625 46.046875 
L 18.5625 10.109375 
Q 18.5625 5.90625 19.171875 4.515625 
Q 19.78125 3.125 20.96875 2.4375 
Q 22.171875 1.765625 25.34375 1.765625 
L 25.34375 0 
L 3.609375 0 
L 3.609375 1.765625 
Q 6.890625 1.765625 8 2.390625 
Q 9.125 3.03125 9.78125 4.484375 
Q 10.453125 5.953125 10.453125 10.109375 
L 10.453125 27.34375 
Q 10.453125 34.625 10.015625 36.765625 
Q 9.671875 38.328125 8.9375 38.9375 
Q 8.203125 39.546875 6.9375 39.546875 
Q 5.5625 39.546875 3.609375 38.8125 
L 2.9375 40.578125 
L 16.40625 46.046875 
z
" id="TimesNewRomanPSMT-69"/>
      <path d="M 25 46.046875 
Q 35.15625 46.046875 41.3125 38.328125 
Q 46.53125 31.734375 46.53125 23.1875 
Q 46.53125 17.1875 43.640625 11.03125 
Q 40.765625 4.890625 35.71875 1.75 
Q 30.671875 -1.375 24.46875 -1.375 
Q 14.359375 -1.375 8.40625 6.6875 
Q 3.375 13.484375 3.375 21.921875 
Q 3.375 28.078125 6.421875 34.15625 
Q 9.46875 40.234375 14.453125 43.140625 
Q 19.4375 46.046875 25 46.046875 
z
M 23.484375 42.875 
Q 20.90625 42.875 18.28125 41.328125 
Q 15.671875 39.796875 14.0625 35.9375 
Q 12.453125 32.078125 12.453125 26.03125 
Q 12.453125 16.265625 16.328125 9.171875 
Q 20.21875 2.09375 26.5625 2.09375 
Q 31.296875 2.09375 34.375 6 
Q 37.453125 9.90625 37.453125 19.4375 
Q 37.453125 31.34375 32.328125 38.1875 
Q 28.859375 42.875 23.484375 42.875 
z
" id="TimesNewRomanPSMT-6f"/>
      <path d="M 16.15625 36.578125 
Q 24.03125 46.046875 31.15625 46.046875 
Q 34.8125 46.046875 37.453125 44.21875 
Q 40.09375 42.390625 41.65625 38.1875 
Q 42.71875 35.25 42.71875 29.203125 
L 42.71875 10.109375 
Q 42.71875 5.859375 43.40625 4.34375 
Q 43.953125 3.125 45.140625 2.4375 
Q 46.34375 1.765625 49.5625 1.765625 
L 49.5625 0 
L 27.4375 0 
L 27.4375 1.765625 
L 28.375 1.765625 
Q 31.5 1.765625 32.734375 2.703125 
Q 33.984375 3.65625 34.46875 5.515625 
Q 34.671875 6.25 34.671875 10.109375 
L 34.671875 28.421875 
Q 34.671875 34.515625 33.078125 37.28125 
Q 31.5 40.046875 27.734375 40.046875 
Q 21.921875 40.046875 16.15625 33.6875 
L 16.15625 10.109375 
Q 16.15625 5.5625 16.703125 4.5 
Q 17.390625 3.078125 18.578125 2.421875 
Q 19.78125 1.765625 23.4375 1.765625 
L 23.4375 0 
L 1.3125 0 
L 1.3125 1.765625 
L 2.296875 1.765625 
Q 5.71875 1.765625 6.90625 3.484375 
Q 8.109375 5.21875 8.109375 10.109375 
L 8.109375 26.703125 
Q 8.109375 34.765625 7.734375 36.515625 
Q 7.375 38.28125 6.609375 38.90625 
Q 5.859375 39.546875 4.59375 39.546875 
Q 3.21875 39.546875 1.3125 38.8125 
L 0.59375 40.578125 
L 14.0625 46.046875 
L 16.15625 46.046875 
z
" id="TimesNewRomanPSMT-6e"/>
     </defs>
     <g transform="translate(142.646094 212.059844)scale(0.15 -0.15)">
      <use xlink:href="#TimesNewRomanPSMT-49"/>
      <use x="33.300781" xlink:href="#TimesNewRomanPSMT-74"/>
      <use x="61.083984" xlink:href="#TimesNewRomanPSMT-65"/>
      <use x="105.46875" xlink:href="#TimesNewRomanPSMT-72"/>
      <use x="138.769531" xlink:href="#TimesNewRomanPSMT-61"/>
      <use x="183.154297" xlink:href="#TimesNewRomanPSMT-74"/>
      <use x="210.9375" xlink:href="#TimesNewRomanPSMT-69"/>
      <use x="238.720703" xlink:href="#TimesNewRomanPSMT-6f"/>
      <use x="288.720703" xlink:href="#TimesNewRomanPSMT-6e"/>
     </g>
    </g>
   </g>
   <g id="matplotlib.axis_2">
    <g id="ytick_1">
     <g id="line2d_9">
      <defs>
       <path d="M 0 0 
L -3.5 0 
" id="m7061deeedd" style="stroke:#000000;stroke-width:0.8;"/>
      </defs>
      <g>
       <use style="stroke:#000000;stroke-width:0.8;" x="56.45" xlink:href="#m7061deeedd" y="177.02"/>
      </g>
     </g>
     <g id="text_10">
      <!-- 0.0 -->
      <defs>
       <path d="M 3.609375 32.71875 
Q 3.609375 44.046875 7.03125 52.21875 
Q 10.453125 60.40625 16.109375 64.40625 
Q 20.515625 67.578125 25.203125 67.578125 
Q 32.8125 67.578125 38.875 59.8125 
Q 46.4375 50.203125 46.4375 33.734375 
Q 46.4375 22.21875 43.109375 14.15625 
Q 39.796875 6.109375 34.640625 2.46875 
Q 29.5 -1.171875 24.703125 -1.171875 
Q 15.234375 -1.171875 8.9375 10.015625 
Q 3.609375 19.4375 3.609375 32.71875 
z
M 13.1875 31.5 
Q 13.1875 17.828125 16.546875 9.1875 
Q 19.34375 1.90625 24.859375 1.90625 
Q 27.484375 1.90625 30.3125 4.265625 
Q 33.15625 6.640625 34.625 12.203125 
Q 36.859375 20.609375 36.859375 35.890625 
Q 36.859375 47.21875 34.515625 54.78125 
Q 32.765625 60.40625 29.984375 62.75 
Q 27.984375 64.359375 25.140625 64.359375 
Q 21.828125 64.359375 19.234375 61.375 
Q 15.71875 57.328125 14.453125 48.625 
Q 13.1875 39.9375 13.1875 31.5 
z
" id="TimesNewRomanPSMT-30"/>
       <path d="M 12.5 9.46875 
Q 14.796875 9.46875 16.359375 7.875 
Q 17.921875 6.296875 17.921875 4.046875 
Q 17.921875 1.8125 16.328125 0.21875 
Q 14.75 -1.375 12.5 -1.375 
Q 10.25 -1.375 8.65625 0.21875 
Q 7.078125 1.8125 7.078125 4.046875 
Q 7.078125 6.34375 8.65625 7.90625 
Q 10.25 9.46875 12.5 9.46875 
z
" id="TimesNewRomanPSMT-2e"/>
      </defs>
      <g transform="translate(30.7 182.227813)scale(0.15 -0.15)">
       <use xlink:href="#TimesNewRomanPSMT-30"/>
       <use x="50" xlink:href="#TimesNewRomanPSMT-2e"/>
       <use x="75" xlink:href="#TimesNewRomanPSMT-30"/>
      </g>
     </g>
    </g>
    <g id="ytick_2">
     <g id="line2d_10">
      <g>
       <use style="stroke:#000000;stroke-width:0.8;" x="56.45" xlink:href="#m7061deeedd" y="139.22"/>
      </g>
     </g>
     <g id="text_11">
      <!-- 0.5 -->
      <g transform="translate(30.7 144.427813)scale(0.15 -0.15)">
       <use xlink:href="#TimesNewRomanPSMT-30"/>
       <use x="50" xlink:href="#TimesNewRomanPSMT-2e"/>
       <use x="75" xlink:href="#TimesNewRomanPSMT-35"/>
      </g>
     </g>
    </g>
    <g id="ytick_3">
     <g id="line2d_11">
      <g>
       <use style="stroke:#000000;stroke-width:0.8;" x="56.45" xlink:href="#m7061deeedd" y="101.42"/>
      </g>
     </g>
     <g id="text_12">
      <!-- 1.0 -->
      <g transform="translate(30.7 106.627813)scale(0.15 -0.15)">
       <use xlink:href="#TimesNewRomanPSMT-31"/>
       <use x="50" xlink:href="#TimesNewRomanPSMT-2e"/>
       <use x="75" xlink:href="#TimesNewRomanPSMT-30"/>
      </g>
     </g>
    </g>
    <g id="ytick_4">
     <g id="line2d_12">
      <g>
       <use style="stroke:#000000;stroke-width:0.8;" x="56.45" xlink:href="#m7061deeedd" y="63.62"/>
      </g>
     </g>
     <g id="text_13">
      <!-- 1.5 -->
      <g transform="translate(30.7 68.827813)scale(0.15 -0.15)">
       <use xlink:href="#TimesNewRomanPSMT-31"/>
       <use x="50" xlink:href="#TimesNewRomanPSMT-2e"/>
       <use x="75" xlink:href="#TimesNewRomanPSMT-35"/>
      </g>
     </g>
    </g>
    <g id="ytick_5">
     <g id="line2d_13">
      <g>
       <use style="stroke:#000000;stroke-width:0.8;" x="56.45" xlink:href="#m7061deeedd" y="25.82"/>
      </g>
     </g>
     <g id="text_14">
      <!-- 2.0 -->
      <g transform="translate(30.7 31.027813)scale(0.15 -0.15)">
       <use xlink:href="#TimesNewRomanPSMT-32"/>
       <use x="50" xlink:href="#TimesNewRomanPSMT-2e"/>
       <use x="75" xlink:href="#TimesNewRomanPSMT-30"/>
      </g>
     </g>
    </g>
    <g id="text_15">
     <!-- Goodness of fit ($\mathdefault{R^2}$) -->
     <defs>
      <path d="M 61.375 67.71875 
L 63.09375 46.828125 
L 61.375 46.828125 
Q 58.796875 54.640625 54.6875 58.59375 
Q 48.78125 64.3125 39.5 64.3125 
Q 26.859375 64.3125 20.265625 54.296875 
Q 14.75 45.84375 14.75 34.1875 
Q 14.75 24.703125 18.40625 16.890625 
Q 22.078125 9.078125 28 5.4375 
Q 33.9375 1.8125 40.1875 1.8125 
Q 43.84375 1.8125 47.265625 2.734375 
Q 50.6875 3.65625 53.859375 5.46875 
L 53.859375 24.609375 
Q 53.859375 29.59375 53.09375 31.125 
Q 52.34375 32.671875 50.75 33.46875 
Q 49.171875 34.28125 45.171875 34.28125 
L 45.171875 36.140625 
L 70.796875 36.140625 
L 70.796875 34.28125 
L 69.578125 34.28125 
Q 65.765625 34.28125 64.359375 31.734375 
Q 63.375 29.9375 63.375 24.609375 
L 63.375 4.34375 
Q 57.765625 1.3125 52.296875 -0.09375 
Q 46.828125 -1.515625 40.140625 -1.515625 
Q 20.953125 -1.515625 10.984375 10.796875 
Q 3.515625 20.015625 3.515625 32.078125 
Q 3.515625 40.828125 7.71875 48.828125 
Q 12.703125 58.34375 21.390625 63.484375 
Q 28.65625 67.71875 38.578125 67.71875 
Q 42.1875 67.71875 45.140625 67.125 
Q 48.09375 66.546875 53.515625 64.546875 
Q 56.25 63.53125 57.171875 63.53125 
Q 58.109375 63.53125 58.765625 64.375 
Q 59.421875 65.234375 59.578125 67.71875 
z
" id="TimesNewRomanPSMT-47"/>
      <path d="M 34.71875 5.03125 
Q 31.453125 1.609375 28.328125 0.109375 
Q 25.203125 -1.375 21.578125 -1.375 
Q 14.265625 -1.375 8.796875 4.75 
Q 3.328125 10.890625 3.328125 20.515625 
Q 3.328125 30.125 9.375 38.109375 
Q 15.4375 46.09375 24.953125 46.09375 
Q 30.859375 46.09375 34.71875 42.328125 
L 34.71875 50.59375 
Q 34.71875 58.25 34.34375 60 
Q 33.984375 61.765625 33.203125 62.390625 
Q 32.421875 63.03125 31.25 63.03125 
Q 29.984375 63.03125 27.875 62.25 
L 27.25 63.96875 
L 40.578125 69.4375 
L 42.78125 69.4375 
L 42.78125 17.71875 
Q 42.78125 9.859375 43.140625 8.125 
Q 43.5 6.390625 44.3125 5.703125 
Q 45.125 5.03125 46.1875 5.03125 
Q 47.515625 5.03125 49.703125 5.859375 
L 50.25 4.15625 
L 36.96875 -1.375 
L 34.71875 -1.375 
z
M 34.71875 8.453125 
L 34.71875 31.5 
Q 34.421875 34.8125 32.953125 37.546875 
Q 31.5 40.28125 29.078125 41.671875 
Q 26.65625 43.0625 24.359375 43.0625 
Q 20.0625 43.0625 16.703125 39.203125 
Q 12.25 34.125 12.25 24.359375 
Q 12.25 14.5 16.546875 9.25 
Q 20.84375 4 26.125 4 
Q 30.5625 4 34.71875 8.453125 
z
" id="TimesNewRomanPSMT-64"/>
      <path d="M 32.03125 46.046875 
L 32.03125 30.8125 
L 30.421875 30.8125 
Q 28.5625 37.984375 25.65625 40.578125 
Q 22.75 43.171875 18.265625 43.171875 
Q 14.84375 43.171875 12.734375 41.359375 
Q 10.640625 39.546875 10.640625 37.359375 
Q 10.640625 34.625 12.203125 32.671875 
Q 13.71875 30.671875 18.359375 28.421875 
L 25.484375 24.953125 
Q 35.40625 20.125 35.40625 12.203125 
Q 35.40625 6.109375 30.78125 2.359375 
Q 26.171875 -1.375 20.453125 -1.375 
Q 16.359375 -1.375 11.078125 0.09375 
Q 9.46875 0.59375 8.453125 0.59375 
Q 7.328125 0.59375 6.6875 -0.6875 
L 5.078125 -0.6875 
L 5.078125 15.28125 
L 6.6875 15.28125 
Q 8.0625 8.453125 11.90625 4.984375 
Q 15.765625 1.515625 20.5625 1.515625 
Q 23.921875 1.515625 26.046875 3.484375 
Q 28.171875 5.46875 28.171875 8.25 
Q 28.171875 11.625 25.796875 13.921875 
Q 23.4375 16.21875 16.359375 19.734375 
Q 9.28125 23.25 7.078125 26.078125 
Q 4.890625 28.859375 4.890625 33.109375 
Q 4.890625 38.625 8.671875 42.328125 
Q 12.453125 46.046875 18.453125 46.046875 
Q 21.09375 46.046875 24.859375 44.921875 
Q 27.34375 44.1875 28.171875 44.1875 
Q 28.953125 44.1875 29.390625 44.53125 
Q 29.828125 44.875 30.421875 46.046875 
z
" id="TimesNewRomanPSMT-73"/>
      <path id="TimesNewRomanPSMT-20"/>
      <path d="M 20.609375 41.21875 
L 20.609375 11.8125 
Q 20.609375 5.5625 21.96875 3.90625 
Q 23.78125 1.765625 26.8125 1.765625 
L 30.859375 1.765625 
L 30.859375 0 
L 4.15625 0 
L 4.15625 1.765625 
L 6.15625 1.765625 
Q 8.109375 1.765625 9.71875 2.734375 
Q 11.328125 3.71875 11.9375 5.375 
Q 12.546875 7.03125 12.546875 11.8125 
L 12.546875 41.21875 
L 3.859375 41.21875 
L 3.859375 44.734375 
L 12.546875 44.734375 
L 12.546875 47.65625 
Q 12.546875 54.34375 14.6875 58.984375 
Q 16.84375 63.625 21.265625 66.484375 
Q 25.6875 69.34375 31.203125 69.34375 
Q 36.328125 69.34375 40.625 66.015625 
Q 43.453125 63.8125 43.453125 61.078125 
Q 43.453125 59.625 42.1875 58.328125 
Q 40.921875 57.03125 39.453125 57.03125 
Q 38.328125 57.03125 37.078125 57.828125 
Q 35.84375 58.640625 34.03125 61.296875 
Q 32.234375 63.96875 30.71875 64.890625 
Q 29.203125 65.828125 27.34375 65.828125 
Q 25.09375 65.828125 23.53125 64.625 
Q 21.96875 63.421875 21.28125 60.90625 
Q 20.609375 58.40625 20.609375 47.953125 
L 20.609375 44.734375 
L 32.125 44.734375 
L 32.125 41.21875 
z
" id="TimesNewRomanPSMT-66"/>
      <path d="M 31.0625 -19.578125 
L 31.0625 -21.390625 
Q 23.6875 -17.671875 18.75 -12.703125 
Q 11.71875 -5.609375 7.90625 4 
Q 4.109375 13.625 4.109375 23.96875 
Q 4.109375 39.109375 11.578125 51.578125 
Q 19.046875 64.0625 31.0625 69.4375 
L 31.0625 67.390625 
Q 25.046875 64.0625 21.1875 58.296875 
Q 17.328125 52.546875 15.421875 43.703125 
Q 13.53125 34.859375 13.53125 25.25 
Q 13.53125 14.796875 15.140625 6.25 
Q 16.40625 -0.484375 18.203125 -4.5625 
Q 20.015625 -8.640625 23.0625 -12.390625 
Q 26.125 -16.15625 31.0625 -19.578125 
z
" id="TimesNewRomanPSMT-28"/>
      <path d="M 67.578125 0 
L 49.90625 0 
L 27.484375 30.953125 
Q 25 30.859375 23.4375 30.859375 
Q 22.796875 30.859375 22.0625 30.875 
Q 21.34375 30.90625 20.5625 30.953125 
L 20.5625 11.71875 
Q 20.5625 5.46875 21.921875 3.953125 
Q 23.78125 1.8125 27.484375 1.8125 
L 30.078125 1.8125 
L 30.078125 0 
L 1.703125 0 
L 1.703125 1.8125 
L 4.203125 1.8125 
Q 8.40625 1.8125 10.203125 4.546875 
Q 11.234375 6.0625 11.234375 11.71875 
L 11.234375 54.5 
Q 11.234375 60.75 9.859375 62.25 
Q 7.953125 64.40625 4.203125 64.40625 
L 1.703125 64.40625 
L 1.703125 66.21875 
L 25.828125 66.21875 
Q 36.375 66.21875 41.375 64.671875 
Q 46.390625 63.140625 49.875 59.015625 
Q 53.375 54.890625 53.375 49.171875 
Q 53.375 43.0625 49.390625 38.5625 
Q 45.40625 34.078125 37.0625 32.234375 
L 50.734375 13.234375 
Q 55.421875 6.6875 58.78125 4.53125 
Q 62.15625 2.390625 67.578125 1.8125 
z
M 20.5625 34.03125 
Q 21.484375 34.03125 22.171875 34 
Q 22.859375 33.984375 23.296875 33.984375 
Q 32.765625 33.984375 37.578125 38.078125 
Q 42.390625 42.1875 42.390625 48.53125 
Q 42.390625 54.734375 38.5 58.609375 
Q 34.625 62.5 28.21875 62.5 
Q 25.390625 62.5 20.5625 61.578125 
z
" id="TimesNewRomanPSMT-52"/>
      <path d="M 2.25 67.390625 
L 2.25 69.4375 
Q 9.671875 65.765625 14.59375 60.796875 
Q 21.578125 53.65625 25.390625 44.0625 
Q 29.203125 34.46875 29.203125 24.078125 
Q 29.203125 8.9375 21.75 -3.53125 
Q 14.3125 -16.015625 2.25 -21.390625 
L 2.25 -19.578125 
Q 8.25 -16.21875 12.125 -10.46875 
Q 16.015625 -4.734375 17.890625 4.125 
Q 19.78125 12.984375 19.78125 22.609375 
Q 19.78125 33.015625 18.171875 41.609375 
Q 16.9375 48.34375 15.109375 52.390625 
Q 13.28125 56.453125 10.25 60.203125 
Q 7.234375 63.96875 2.25 67.390625 
z
" id="TimesNewRomanPSMT-29"/>
     </defs>
     <g transform="translate(23.4 155.06)rotate(-90)scale(0.15 -0.15)">
      <use transform="translate(0 0.582813)" xlink:href="#TimesNewRomanPSMT-47"/>
      <use transform="translate(72.216797 0.582813)" xlink:href="#TimesNewRomanPSMT-6f"/>
      <use transform="translate(122.216797 0.582813)" xlink:href="#TimesNewRomanPSMT-6f"/>
      <use transform="translate(172.216797 0.582813)" xlink:href="#TimesNewRomanPSMT-64"/>
      <use transform="translate(222.216797 0.582813)" xlink:href="#TimesNewRomanPSMT-6e"/>
      <use transform="translate(272.216797 0.582813)" xlink:href="#TimesNewRomanPSMT-65"/>
      <use transform="translate(316.601562 0.582813)" xlink:href="#TimesNewRomanPSMT-73"/>
      <use transform="translate(355.517578 0.582813)" xlink:href="#TimesNewRomanPSMT-73"/>
      <use transform="translate(394.433594 0.582813)" xlink:href="#TimesNewRomanPSMT-20"/>
      <use transform="translate(419.433594 0.582813)" xlink:href="#TimesNewRomanPSMT-6f"/>
      <use transform="translate(469.433594 0.582813)" xlink:href="#TimesNewRomanPSMT-66"/>
      <use transform="translate(502.734375 0.582813)" xlink:href="#TimesNewRomanPSMT-20"/>
      <use transform="translate(527.734375 0.582813)" xlink:href="#TimesNewRomanPSMT-66"/>
      <use transform="translate(561.035156 0.582813)" xlink:href="#TimesNewRomanPSMT-69"/>
      <use transform="translate(588.818359 0.582813)" xlink:href="#TimesNewRomanPSMT-74"/>
      <use transform="translate(616.601562 0.582813)" xlink:href="#TimesNewRomanPSMT-20"/>
      <use transform="translate(641.601562 0.582813)" xlink:href="#TimesNewRomanPSMT-28"/>
      <use transform="translate(674.902344 0.582813)" xlink:href="#TimesNewRomanPSMT-52"/>
      <use transform="translate(743.104375 60.695312)scale(0.7)" xlink:href="#TimesNewRomanPSMT-32"/>
      <use transform="translate(782.398125 0.582813)" xlink:href="#TimesNewRomanPSMT-29"/>
     </g>
    </g>
   </g>
   <g id="LineCollection_1">
    <path clip-path="url(#p1140edb813)" d="M 70.4 155.352495 
L 70.4 83.775505 
" style="fill:none;stroke:#000000;"/>
    <path clip-path="url(#p1140edb813)" d="M 98.3 133.103156 
L 98.3 103.000844 
" style="fill:none;stroke:#000000;"/>
    <path clip-path="url(#p1140edb813)" d="M 126.2 119.791532 
L 126.2 113.288468 
" style="fill:none;stroke:#000000;"/>
    <path clip-path="url(#p1140edb813)" d="M 154.1 123.815361 
L 154.1 109.264639 
" style="fill:none;stroke:#000000;"/>
    <path clip-path="url(#p1140edb813)" d="M 182 118.950163 
L 182 112.617837 
" style="fill:none;stroke:#000000;"/>
    <path clip-path="url(#p1140edb813)" d="M 209.9 116.740021 
L 209.9 113.315979 
" style="fill:none;stroke:#000000;"/>
    <path clip-path="url(#p1140edb813)" d="M 237.8 115.985729 
L 237.8 114.070271 
" style="fill:none;stroke:#000000;"/>
    <path clip-path="url(#p1140edb813)" d="M 265.7 115.722996 
L 265.7 114.333004 
" style="fill:none;stroke:#000000;"/>
   </g>
   <g id="line2d_14">
    <defs>
     <path d="M 2 0 
L -2 -0 
" id="me311d8f43a" style="stroke:#000000;"/>
    </defs>
    <g clip-path="url(#p1140edb813)">
     <use style="stroke:#000000;" x="70.4" xlink:href="#me311d8f43a" y="155.352495"/>
     <use style="stroke:#000000;" x="98.3" xlink:href="#me311d8f43a" y="133.103156"/>
     <use style="stroke:#000000;" x="126.2" xlink:href="#me311d8f43a" y="119.791532"/>
     <use style="stroke:#000000;" x="154.1" xlink:href="#me311d8f43a" y="123.815361"/>
     <use style="stroke:#000000;" x="182" xlink:href="#me311d8f43a" y="118.950163"/>
     <use style="stroke:#000000;" x="209.9" xlink:href="#me311d8f43a" y="116.740021"/>
     <use style="stroke:#000000;" x="237.8" xlink:href="#me311d8f43a" y="115.985729"/>
     <use style="stroke:#000000;" x="265.7" xlink:href="#me311d8f43a" y="115.722996"/>
    </g>
   </g>
   <g id="line2d_15">
    <g clip-path="url(#p1140edb813)">
     <use style="stroke:#000000;" x="70.4" xlink:href="#me311d8f43a" y="83.775505"/>
     <use style="stroke:#000000;" x="98.3" xlink:href="#me311d8f43a" y="103.000844"/>
     <use style="stroke:#000000;" x="126.2" xlink:href="#me311d8f43a" y="113.288468"/>
     <use style="stroke:#000000;" x="154.1" xlink:href="#me311d8f43a" y="109.264639"/>
     <use style="stroke:#000000;" x="182" xlink:href="#me311d8f43a" y="112.617837"/>
     <use style="stroke:#000000;" x="209.9" xlink:href="#me311d8f43a" y="113.315979"/>
     <use style="stroke:#000000;" x="237.8" xlink:href="#me311d8f43a" y="114.070271"/>
     <use style="stroke:#000000;" x="265.7" xlink:href="#me311d8f43a" y="114.333004"/>
    </g>
   </g>
   <g id="line2d_16">
    <path clip-path="url(#p1140edb813)" d="M 70.4 119.564 
L 98.3 118.052 
L 126.2 116.54 
L 154.1 116.54 
L 182 115.784 
L 209.9 115.028 
L 237.8 115.028 
L 265.7 115.028 
" style="fill:none;stroke:#000000;stroke-linecap:square;stroke-width:1.5;"/>
   </g>
   <g id="patch_3">
    <path d="M 56.45 177.02 
L 56.45 10.7 
" style="fill:none;stroke:#000000;stroke-linecap:square;stroke-linejoin:miter;stroke-width:0.8;"/>
   </g>
   <g id="patch_4">
    <path d="M 279.65 177.02 
L 279.65 10.7 
" style="fill:none;stroke:#000000;stroke-linecap:square;stroke-linejoin:miter;stroke-width:0.8;"/>
   </g>
   <g id="patch_5">
    <path d="M 56.45 177.02 
L 279.65 177.02 
" style="fill:none;stroke:#000000;stroke-linecap:square;stroke-linejoin:miter;stroke-width:0.8;"/>
   </g>
   <g id="patch_6">
    <path d="M 56.45 10.7 
L 279.65 10.7 
" style="fill:none;stroke:#000000;stroke-linecap:square;stroke-linejoin:miter;stroke-width:0.8;"/>
   </g>
   <g id="text_16">
    <!-- 0.76 $\pm$ 0.47 -->
    <defs>
     <path d="M 46 62.703125 
L 46 43.796875 
L 73.1875 43.796875 
L 73.1875 35.5 
L 46 35.5 
L 46 16.609375 
L 37.796875 16.609375 
L 37.796875 35.5 
L 10.59375 35.5 
L 10.59375 43.796875 
L 37.796875 43.796875 
L 37.796875 62.703125 
z
M 10.59375 8.296875 
L 73.1875 8.296875 
L 73.1875 0 
L 10.59375 0 
z
" id="DejaVuSans-b1"/>
    </defs>
    <g transform="translate(73.282813 75.459505)rotate(-90)scale(0.12 -0.12)">
     <use transform="translate(0 0.421875)" xlink:href="#TimesNewRomanPSMT-30"/>
     <use transform="translate(50 0.421875)" xlink:href="#TimesNewRomanPSMT-2e"/>
     <use transform="translate(75 0.421875)" xlink:href="#TimesNewRomanPSMT-37"/>
     <use transform="translate(125 0.421875)" xlink:href="#TimesNewRomanPSMT-36"/>
     <use transform="translate(175 0.421875)" xlink:href="#TimesNewRomanPSMT-20"/>
     <use transform="translate(200 0.421875)" xlink:href="#DejaVuSans-b1"/>
     <use transform="translate(283.789062 0.421875)" xlink:href="#TimesNewRomanPSMT-20"/>
     <use transform="translate(308.789062 0.421875)" xlink:href="#TimesNewRomanPSMT-30"/>
     <use transform="translate(358.789062 0.421875)" xlink:href="#TimesNewRomanPSMT-2e"/>
     <use transform="translate(383.789062 0.421875)" xlink:href="#TimesNewRomanPSMT-34"/>
     <use transform="translate(433.789062 0.421875)" xlink:href="#TimesNewRomanPSMT-37"/>
    </g>
   </g>
   <g id="text_17">
    <!-- 0.78 $\pm$ 0.2 -->
    <g transform="translate(101.182812 94.684844)rotate(-90)scale(0.12 -0.12)">
     <use transform="translate(0 0.421875)" xlink:href="#TimesNewRomanPSMT-30"/>
     <use transform="translate(50 0.421875)" xlink:href="#TimesNewRomanPSMT-2e"/>
     <use transform="translate(75 0.421875)" xlink:href="#TimesNewRomanPSMT-37"/>
     <use transform="translate(125 0.421875)" xlink:href="#TimesNewRomanPSMT-38"/>
     <use transform="translate(175 0.421875)" xlink:href="#TimesNewRomanPSMT-20"/>
     <use transform="translate(200 0.421875)" xlink:href="#DejaVuSans-b1"/>
     <use transform="translate(283.789062 0.421875)" xlink:href="#TimesNewRomanPSMT-20"/>
     <use transform="translate(308.789062 0.421875)" xlink:href="#TimesNewRomanPSMT-30"/>
     <use transform="translate(358.789062 0.421875)" xlink:href="#TimesNewRomanPSMT-2e"/>
     <use transform="translate(383.789062 0.421875)" xlink:href="#TimesNewRomanPSMT-32"/>
    </g>
   </g>
   <g id="text_18">
    <!-- 0.8 $\pm$ 0.04 -->
    <g transform="translate(129.082812 104.972468)rotate(-90)scale(0.12 -0.12)">
     <use transform="translate(0 0.421875)" xlink:href="#TimesNewRomanPSMT-30"/>
     <use transform="translate(50 0.421875)" xlink:href="#TimesNewRomanPSMT-2e"/>
     <use transform="translate(75 0.421875)" xlink:href="#TimesNewRomanPSMT-38"/>
     <use transform="translate(125 0.421875)" xlink:href="#TimesNewRomanPSMT-20"/>
     <use transform="translate(150 0.421875)" xlink:href="#DejaVuSans-b1"/>
     <use transform="translate(233.789062 0.421875)" xlink:href="#TimesNewRomanPSMT-20"/>
     <use transform="translate(258.789062 0.421875)" xlink:href="#TimesNewRomanPSMT-30"/>
     <use transform="translate(308.789062 0.421875)" xlink:href="#TimesNewRomanPSMT-2e"/>
     <use transform="translate(333.789062 0.421875)" xlink:href="#TimesNewRomanPSMT-30"/>
     <use transform="translate(383.789062 0.421875)" xlink:href="#TimesNewRomanPSMT-34"/>
    </g>
   </g>
   <g id="text_19">
    <!-- 0.8 $\pm$ 0.1 -->
    <g transform="translate(156.982812 100.948639)rotate(-90)scale(0.12 -0.12)">
     <use transform="translate(0 0.421875)" xlink:href="#TimesNewRomanPSMT-30"/>
     <use transform="translate(50 0.421875)" xlink:href="#TimesNewRomanPSMT-2e"/>
     <use transform="translate(75 0.421875)" xlink:href="#TimesNewRomanPSMT-38"/>
     <use transform="translate(125 0.421875)" xlink:href="#TimesNewRomanPSMT-20"/>
     <use transform="translate(150 0.421875)" xlink:href="#DejaVuSans-b1"/>
     <use transform="translate(233.789062 0.421875)" xlink:href="#TimesNewRomanPSMT-20"/>
     <use transform="translate(258.789062 0.421875)" xlink:href="#TimesNewRomanPSMT-30"/>
     <use transform="translate(308.789062 0.421875)" xlink:href="#TimesNewRomanPSMT-2e"/>
     <use transform="translate(333.789062 0.421875)" xlink:href="#TimesNewRomanPSMT-31"/>
    </g>
   </g>
   <g id="text_20">
    <!-- 0.81 $\pm$ 0.04 -->
    <g transform="translate(184.882812 104.301837)rotate(-90)scale(0.12 -0.12)">
     <use transform="translate(0 0.421875)" xlink:href="#TimesNewRomanPSMT-30"/>
     <use transform="translate(50 0.421875)" xlink:href="#TimesNewRomanPSMT-2e"/>
     <use transform="translate(75 0.421875)" xlink:href="#TimesNewRomanPSMT-38"/>
     <use transform="translate(125 0.421875)" xlink:href="#TimesNewRomanPSMT-31"/>
     <use transform="translate(175 0.421875)" xlink:href="#TimesNewRomanPSMT-20"/>
     <use transform="translate(200 0.421875)" xlink:href="#DejaVuSans-b1"/>
     <use transform="translate(283.789062 0.421875)" xlink:href="#TimesNewRomanPSMT-20"/>
     <use transform="translate(308.789062 0.421875)" xlink:href="#TimesNewRomanPSMT-30"/>
     <use transform="translate(358.789062 0.421875)" xlink:href="#TimesNewRomanPSMT-2e"/>
     <use transform="translate(383.789062 0.421875)" xlink:href="#TimesNewRomanPSMT-30"/>
     <use transform="translate(433.789062 0.421875)" xlink:href="#TimesNewRomanPSMT-34"/>
    </g>
   </g>
   <g id="text_21">
    <!-- 0.82 $\pm$ 0.02 -->
    <g transform="translate(212.782812 104.999979)rotate(-90)scale(0.12 -0.12)">
     <use transform="translate(0 0.421875)" xlink:href="#TimesNewRomanPSMT-30"/>
     <use transform="translate(50 0.421875)" xlink:href="#TimesNewRomanPSMT-2e"/>
     <use transform="translate(75 0.421875)" xlink:href="#TimesNewRomanPSMT-38"/>
     <use transform="translate(125 0.421875)" xlink:href="#TimesNewRomanPSMT-32"/>
     <use transform="translate(175 0.421875)" xlink:href="#TimesNewRomanPSMT-20"/>
     <use transform="translate(200 0.421875)" xlink:href="#DejaVuSans-b1"/>
     <use transform="translate(283.789062 0.421875)" xlink:href="#TimesNewRomanPSMT-20"/>
     <use transform="translate(308.789062 0.421875)" xlink:href="#TimesNewRomanPSMT-30"/>
     <use transform="translate(358.789062 0.421875)" xlink:href="#TimesNewRomanPSMT-2e"/>
     <use transform="translate(383.789062 0.421875)" xlink:href="#TimesNewRomanPSMT-30"/>
     <use transform="translate(433.789062 0.421875)" xlink:href="#TimesNewRomanPSMT-32"/>
    </g>
   </g>
   <g id="text_22">
    <!-- 0.82 $\pm$ 0.01 -->
    <g transform="translate(240.682812 105.754271)rotate(-90)scale(0.12 -0.12)">
     <use transform="translate(0 0.421875)" xlink:href="#TimesNewRomanPSMT-30"/>
     <use transform="translate(50 0.421875)" xlink:href="#TimesNewRomanPSMT-2e"/>
     <use transform="translate(75 0.421875)" xlink:href="#TimesNewRomanPSMT-38"/>
     <use transform="translate(125 0.421875)" xlink:href="#TimesNewRomanPSMT-32"/>
     <use transform="translate(175 0.421875)" xlink:href="#TimesNewRomanPSMT-20"/>
     <use transform="translate(200 0.421875)" xlink:href="#DejaVuSans-b1"/>
     <use transform="translate(283.789062 0.421875)" xlink:href="#TimesNewRomanPSMT-20"/>
     <use transform="translate(308.789062 0.421875)" xlink:href="#TimesNewRomanPSMT-30"/>
     <use transform="translate(358.789062 0.421875)" xlink:href="#TimesNewRomanPSMT-2e"/>
     <use transform="translate(383.789062 0.421875)" xlink:href="#TimesNewRomanPSMT-30"/>
     <use transform="translate(433.789062 0.421875)" xlink:href="#TimesNewRomanPSMT-31"/>
    </g>
   </g>
   <g id="text_23">
    <!-- 0.82 $\pm$ 0.01 -->
    <g transform="translate(268.582812 106.017004)rotate(-90)scale(0.12 -0.12)">
     <use transform="translate(0 0.421875)" xlink:href="#TimesNewRomanPSMT-30"/>
     <use transform="translate(50 0.421875)" xlink:href="#TimesNewRomanPSMT-2e"/>
     <use transform="translate(75 0.421875)" xlink:href="#TimesNewRomanPSMT-38"/>
     <use transform="translate(125 0.421875)" xlink:href="#TimesNewRomanPSMT-32"/>
     <use transform="translate(175 0.421875)" xlink:href="#TimesNewRomanPSMT-20"/>
     <use transform="translate(200 0.421875)" xlink:href="#DejaVuSans-b1"/>
     <use transform="translate(283.789062 0.421875)" xlink:href="#TimesNewRomanPSMT-20"/>
     <use transform="translate(308.789062 0.421875)" xlink:href="#TimesNewRomanPSMT-30"/>
     <use transform="translate(358.789062 0.421875)" xlink:href="#TimesNewRomanPSMT-2e"/>
     <use transform="translate(383.789062 0.421875)" xlink:href="#TimesNewRomanPSMT-30"/>
     <use transform="translate(433.789062 0.421875)" xlink:href="#TimesNewRomanPSMT-31"/>
    </g>
   </g>
  </g>
 </g>
 <defs>
  <clipPath id="p1140edb813">
   <rect height="166.32" width="223.2" x="56.45" y="10.7"/>
  </clipPath>
 </defs>
</svg>
