<?xml version="1.0" encoding="utf-8" standalone="no"?>
<!DOCTYPE svg PUBLIC "-//W3C//DTD SVG 1.1//EN"
  "http://www.w3.org/Graphics/SVG/1.1/DTD/svg11.dtd">
<!-- Created with matplotlib (https://matplotlib.org/) -->
<svg height="245.5375pt" version="1.1" viewBox="0 0 239.128033 245.5375" width="239.128033pt" xmlns="http://www.w3.org/2000/svg" xmlns:xlink="http://www.w3.org/1999/xlink">
 <defs>
  <style type="text/css">
*{stroke-linecap:butt;stroke-linejoin:round;}
  </style>
 </defs>
 <g id="figure_1">
  <g id="patch_1">
   <path d="M 0 245.5375 
L 239.128033 245.5375 
L 239.128033 -0 
L 0 -0 
z
" style="fill:#ffffff;"/>
  </g>
  <g id="axes_1">
   <g id="patch_2">
    <path d="M 61.276563 216.6375 
L 228.676563 216.6375 
L 228.676563 78.0375 
L 61.276563 78.0375 
z
" style="fill:#ffffff;"/>
   </g>
   <g id="matplotlib.axis_1">
    <g id="xtick_1">
     <g id="line2d_1">
      <defs>
       <path d="M 0 0 
L 0 3.5 
" id="m4fd9e03184" style="stroke:#000000;stroke-width:0.8;"/>
      </defs>
      <g>
       <use style="stroke:#000000;stroke-width:0.8;" x="66.200092" xlink:href="#m4fd9e03184" y="216.6375"/>
      </g>
     </g>
     <g id="text_1">
      <!-- $c_{mmt}$ -->
      <defs>
       <path d="M 53.609375 52.59375 
L 51.8125 43.703125 
Q 48.578125 46.046875 44.9375 47.21875 
Q 41.3125 48.390625 37.40625 48.390625 
Q 33.109375 48.390625 29.21875 46.875 
Q 25.34375 45.359375 22.703125 42.578125 
Q 18.5 38.328125 16.203125 32.609375 
Q 13.921875 26.90625 13.921875 20.796875 
Q 13.921875 13.421875 17.609375 9.8125 
Q 21.296875 6.203125 28.8125 6.203125 
Q 32.515625 6.203125 36.6875 7.328125 
Q 40.875 8.453125 45.40625 10.6875 
L 43.703125 1.8125 
Q 39.796875 0.203125 35.671875 -0.609375 
Q 31.546875 -1.421875 27.203125 -1.421875 
Q 16.3125 -1.421875 10.453125 4.015625 
Q 4.59375 9.46875 4.59375 19.578125 
Q 4.59375 28.078125 7.640625 35.234375 
Q 10.6875 42.390625 16.703125 48.09375 
Q 20.796875 52 26.3125 54 
Q 31.84375 56 38.375 56 
Q 42.1875 56 45.9375 55.140625 
Q 49.703125 54.296875 53.609375 52.59375 
z
" id="DejaVuSans-Oblique-99"/>
       <path d="M 89.796875 33.015625 
L 83.40625 0 
L 74.421875 0 
L 80.71875 32.71875 
Q 81.109375 34.8125 81.296875 36.328125 
Q 81.5 37.84375 81.5 38.921875 
Q 81.5 43.3125 79.046875 45.75 
Q 76.609375 48.1875 72.21875 48.1875 
Q 65.671875 48.1875 60.546875 43.28125 
Q 55.421875 38.375 53.90625 30.515625 
L 47.90625 0 
L 38.921875 0 
L 45.3125 32.71875 
Q 45.703125 34.515625 45.890625 36.046875 
Q 46.09375 37.59375 46.09375 38.8125 
Q 46.09375 43.265625 43.65625 45.71875 
Q 41.21875 48.1875 36.921875 48.1875 
Q 30.28125 48.1875 25.140625 43.28125 
Q 20.015625 38.375 18.5 30.515625 
L 12.5 0 
L 3.515625 0 
L 14.203125 54.6875 
L 23.1875 54.6875 
L 21.484375 46.1875 
Q 25.140625 50.984375 30.046875 53.484375 
Q 34.96875 56 40.578125 56 
Q 46.53125 56 50.359375 52.875 
Q 54.203125 49.75 54.984375 44.1875 
Q 59.078125 49.953125 64.46875 52.96875 
Q 69.875 56 75.875 56 
Q 82.90625 56 86.734375 51.953125 
Q 90.578125 47.90625 90.578125 40.484375 
Q 90.578125 38.875 90.375 36.9375 
Q 90.1875 35.015625 89.796875 33.015625 
z
" id="DejaVuSans-Oblique-109"/>
       <path d="M 42.28125 54.6875 
L 40.921875 47.703125 
L 23 47.703125 
L 17.1875 18.015625 
Q 16.890625 16.359375 16.75 15.234375 
Q 16.609375 14.109375 16.609375 13.484375 
Q 16.609375 10.359375 18.484375 8.9375 
Q 20.359375 7.515625 24.515625 7.515625 
L 33.59375 7.515625 
L 32.078125 0 
L 23.484375 0 
Q 15.484375 0 11.546875 3.125 
Q 7.625 6.25 7.625 12.59375 
Q 7.625 13.71875 7.765625 15.0625 
Q 7.90625 16.40625 8.203125 18.015625 
L 14.015625 47.703125 
L 6.390625 47.703125 
L 7.8125 54.6875 
L 15.28125 54.6875 
L 18.3125 70.21875 
L 27.296875 70.21875 
L 24.3125 54.6875 
z
" id="DejaVuSans-Oblique-116"/>
      </defs>
      <g transform="translate(49.550092 235.035156)scale(0.15 -0.15)">
       <use xlink:href="#DejaVuSans-Oblique-99"/>
       <use transform="translate(54.980469 -16.40625)scale(0.7)" xlink:href="#DejaVuSans-Oblique-109"/>
       <use transform="translate(123.168945 -16.40625)scale(0.7)" xlink:href="#DejaVuSans-Oblique-109"/>
       <use transform="translate(191.357422 -16.40625)scale(0.7)" xlink:href="#DejaVuSans-Oblique-116"/>
      </g>
     </g>
    </g>
    <g id="xtick_2">
     <g id="line2d_2">
      <g>
       <use style="stroke:#000000;stroke-width:0.8;" x="76.047151" xlink:href="#m4fd9e03184" y="216.6375"/>
      </g>
     </g>
     <g id="text_2">
      <!-- $M_{t}$ -->
      <defs>
       <path d="M 16.890625 72.90625 
L 31.6875 72.90625 
L 40.1875 23.78125 
L 68.40625 72.90625 
L 83.59375 72.90625 
L 69.390625 0 
L 59.8125 0 
L 72.21875 63.921875 
L 43.609375 14.015625 
L 33.984375 14.015625 
L 24.703125 64.109375 
L 12.3125 0 
L 2.6875 0 
z
" id="DejaVuSans-Oblique-77"/>
      </defs>
      <g transform="translate(67.272151 235.035156)scale(0.15 -0.15)">
       <use transform="translate(0 0.09375)" xlink:href="#DejaVuSans-Oblique-77"/>
       <use transform="translate(86.279297 -16.3125)scale(0.7)" xlink:href="#DejaVuSans-Oblique-116"/>
      </g>
     </g>
    </g>
    <g id="xtick_3">
     <g id="line2d_3">
      <g>
       <use style="stroke:#000000;stroke-width:0.8;" x="85.89421" xlink:href="#m4fd9e03184" y="216.6375"/>
      </g>
     </g>
     <g id="text_3">
      <!-- $c_{cht}$ -->
      <defs>
       <path d="M 55.71875 33.015625 
L 49.3125 0 
L 40.28125 0 
L 46.6875 32.671875 
Q 47.125 34.96875 47.359375 36.71875 
Q 47.609375 38.484375 47.609375 39.5 
Q 47.609375 43.609375 45.015625 45.890625 
Q 42.4375 48.1875 37.796875 48.1875 
Q 30.5625 48.1875 25.265625 43.296875 
Q 19.96875 38.421875 18.40625 30.328125 
L 12.5 0 
L 3.515625 0 
L 18.3125 75.984375 
L 27.296875 75.984375 
L 21.484375 46.09375 
Q 24.90625 50.6875 30.21875 53.34375 
Q 35.546875 56 41.40625 56 
Q 48.640625 56 52.609375 52.09375 
Q 56.59375 48.1875 56.59375 41.109375 
Q 56.59375 39.359375 56.375 37.359375 
Q 56.15625 35.359375 55.71875 33.015625 
z
" id="DejaVuSans-Oblique-104"/>
      </defs>
      <g transform="translate(73.21921 235.035156)scale(0.15 -0.15)">
       <use xlink:href="#DejaVuSans-Oblique-99"/>
       <use transform="translate(54.980469 -16.40625)scale(0.7)" xlink:href="#DejaVuSans-Oblique-99"/>
       <use transform="translate(93.466797 -16.40625)scale(0.7)" xlink:href="#DejaVuSans-Oblique-104"/>
       <use transform="translate(137.832031 -16.40625)scale(0.7)" xlink:href="#DejaVuSans-Oblique-116"/>
      </g>
     </g>
    </g>
    <g id="xtick_4">
     <g id="line2d_4">
      <g>
       <use style="stroke:#000000;stroke-width:0.8;" x="95.741268" xlink:href="#m4fd9e03184" y="216.6375"/>
      </g>
     </g>
     <g id="text_4">
      <!-- $pH_{t}$ -->
      <defs>
       <path d="M 49.609375 33.6875 
Q 49.609375 40.875 46.484375 44.671875 
Q 43.359375 48.484375 37.5 48.484375 
Q 33.5 48.484375 29.859375 46.4375 
Q 26.21875 44.390625 23.390625 40.484375 
Q 20.609375 36.625 18.9375 31.15625 
Q 17.28125 25.6875 17.28125 20.3125 
Q 17.28125 13.484375 20.40625 9.796875 
Q 23.53125 6.109375 29.296875 6.109375 
Q 33.546875 6.109375 37.1875 8.109375 
Q 40.828125 10.109375 43.40625 13.921875 
Q 46.1875 17.921875 47.890625 23.34375 
Q 49.609375 28.765625 49.609375 33.6875 
z
M 21.78125 46.390625 
Q 25.390625 51.125 30.296875 53.5625 
Q 35.203125 56 41.21875 56 
Q 49.609375 56 54.25 50.5 
Q 58.890625 45.015625 58.890625 35.109375 
Q 58.890625 27 56 19.65625 
Q 53.125 12.3125 47.703125 6.5 
Q 44.09375 2.640625 39.546875 0.609375 
Q 35.015625 -1.421875 29.984375 -1.421875 
Q 24.171875 -1.421875 20.21875 1 
Q 16.265625 3.421875 14.3125 8.203125 
L 8.6875 -20.796875 
L -0.296875 -20.796875 
L 14.40625 54.6875 
L 23.390625 54.6875 
z
" id="DejaVuSans-Oblique-112"/>
       <path d="M 16.890625 72.90625 
L 26.8125 72.90625 
L 21 43.015625 
L 56.78125 43.015625 
L 62.59375 72.90625 
L 72.515625 72.90625 
L 58.296875 0 
L 48.390625 0 
L 55.171875 34.71875 
L 19.390625 34.71875 
L 12.59375 0 
L 2.6875 0 
z
" id="DejaVuSans-Oblique-72"/>
      </defs>
      <g transform="translate(83.066268 235.004687)scale(0.15 -0.15)">
       <use transform="translate(0 0.09375)" xlink:href="#DejaVuSans-Oblique-112"/>
       <use transform="translate(63.476562 0.09375)" xlink:href="#DejaVuSans-Oblique-72"/>
       <use transform="translate(138.671875 -16.3125)scale(0.7)" xlink:href="#DejaVuSans-Oblique-116"/>
      </g>
     </g>
    </g>
    <g id="xtick_5">
     <g id="line2d_5">
      <g>
       <use style="stroke:#000000;stroke-width:0.8;" x="105.588327" xlink:href="#m4fd9e03184" y="216.6375"/>
      </g>
     </g>
     <g id="text_5">
      <!-- $\beta_{Ma}$ -->
      <defs>
       <path d="M 13.625 3.375 
L 8.9375 -20.796875 
L -0.09375 -20.796875 
L 14.5 54.34375 
Q 18.84375 76.609375 39.65625 76.609375 
Q 60.75 76.609375 57.171875 57.8125 
Q 54.734375 44.4375 45.21875 39.546875 
Q 58.015625 35.15625 55.515625 22.125 
Q 51.125 -1.078125 27.484375 -1.03125 
Q 17.140625 -0.984375 13.625 3.375 
z
M 15.921875 15.09375 
Q 19.671875 6.59375 29.296875 6.640625 
Q 43.359375 6.640625 46.34375 21.96875 
Q 49.03125 35.75 26.171875 34.671875 
L 27.78125 42.96875 
Q 45.453125 42.671875 48.53125 58.59375 
Q 50.640625 69.34375 39.203125 69.28125 
Q 26.421875 69.28125 23.484375 54.046875 
z
" id="DejaVuSans-Oblique-946"/>
       <path d="M 53.71875 31.203125 
L 47.609375 0 
L 38.625 0 
L 40.28125 8.296875 
Q 36.328125 3.421875 31.265625 1 
Q 26.21875 -1.421875 20.015625 -1.421875 
Q 13.03125 -1.421875 8.5625 2.84375 
Q 4.109375 7.125 4.109375 13.8125 
Q 4.109375 23.390625 11.75 28.953125 
Q 19.390625 34.515625 32.8125 34.515625 
L 45.3125 34.515625 
L 45.796875 36.921875 
Q 45.90625 37.3125 45.953125 37.765625 
Q 46 38.234375 46 39.203125 
Q 46 43.5625 42.453125 45.96875 
Q 38.921875 48.390625 32.515625 48.390625 
Q 28.125 48.390625 23.5 47.265625 
Q 18.890625 46.140625 14.015625 43.890625 
L 15.578125 52.203125 
Q 20.65625 54.109375 25.515625 55.046875 
Q 30.375 56 34.90625 56 
Q 44.578125 56 49.625 51.796875 
Q 54.6875 47.609375 54.6875 39.59375 
Q 54.6875 37.984375 54.4375 35.8125 
Q 54.203125 33.640625 53.71875 31.203125 
z
M 44 27.484375 
L 35.015625 27.484375 
Q 23.96875 27.484375 18.671875 24.53125 
Q 13.375 21.578125 13.375 15.375 
Q 13.375 11.078125 16.078125 8.640625 
Q 18.796875 6.203125 23.578125 6.203125 
Q 30.90625 6.203125 36.375 11.453125 
Q 41.84375 16.703125 43.609375 25.484375 
z
" id="DejaVuSans-Oblique-97"/>
      </defs>
      <g transform="translate(92.838327 235.1875)scale(0.15 -0.15)">
       <use transform="translate(0 0.390625)" xlink:href="#DejaVuSans-Oblique-946"/>
       <use transform="translate(63.818359 -16.015625)scale(0.7)" xlink:href="#DejaVuSans-Oblique-77"/>
       <use transform="translate(124.213867 -16.015625)scale(0.7)" xlink:href="#DejaVuSans-Oblique-97"/>
      </g>
     </g>
    </g>
    <g id="xtick_6">
     <g id="line2d_6">
      <g>
       <use style="stroke:#000000;stroke-width:0.8;" x="115.435386" xlink:href="#m4fd9e03184" y="216.6375"/>
      </g>
     </g>
     <g id="text_6">
      <!-- $c_{mht}$ -->
      <g transform="translate(100.585386 235.035156)scale(0.15 -0.15)">
       <use xlink:href="#DejaVuSans-Oblique-99"/>
       <use transform="translate(54.980469 -16.40625)scale(0.7)" xlink:href="#DejaVuSans-Oblique-109"/>
       <use transform="translate(123.168945 -16.40625)scale(0.7)" xlink:href="#DejaVuSans-Oblique-104"/>
       <use transform="translate(167.53418 -16.40625)scale(0.7)" xlink:href="#DejaVuSans-Oblique-116"/>
      </g>
     </g>
    </g>
    <g id="xtick_7">
     <g id="line2d_7">
      <g>
       <use style="stroke:#000000;stroke-width:0.8;" x="125.282445" xlink:href="#m4fd9e03184" y="216.6375"/>
      </g>
     </g>
     <g id="text_7">
      <!-- $\beta_{seb}$ -->
      <defs>
       <path d="M 50 53.078125 
L 48.296875 44.578125 
Q 44.734375 46.53125 40.765625 47.5 
Q 36.8125 48.484375 32.625 48.484375 
Q 25.53125 48.484375 21.453125 46.0625 
Q 17.390625 43.65625 17.390625 39.5 
Q 17.390625 34.671875 26.859375 32.078125 
Q 27.59375 31.890625 27.9375 31.78125 
L 30.8125 30.90625 
Q 39.796875 28.421875 42.796875 25.6875 
Q 45.796875 22.953125 45.796875 18.21875 
Q 45.796875 9.515625 38.890625 4.046875 
Q 31.984375 -1.421875 20.796875 -1.421875 
Q 16.453125 -1.421875 11.671875 -0.578125 
Q 6.890625 0.25 1.125 2 
L 2.875 11.28125 
Q 7.8125 8.734375 12.59375 7.421875 
Q 17.390625 6.109375 21.78125 6.109375 
Q 28.375 6.109375 32.5 8.9375 
Q 36.625 11.765625 36.625 16.109375 
Q 36.625 20.796875 25.78125 23.6875 
L 24.859375 23.921875 
L 21.78125 24.703125 
Q 14.9375 26.515625 11.765625 29.46875 
Q 8.59375 32.421875 8.59375 37.015625 
Q 8.59375 45.75 15.15625 50.875 
Q 21.734375 56 33.015625 56 
Q 37.453125 56 41.671875 55.265625 
Q 45.90625 54.546875 50 53.078125 
z
" id="DejaVuSans-Oblique-115"/>
       <path d="M 48.09375 32.234375 
Q 48.25 33.015625 48.3125 33.84375 
Q 48.390625 34.671875 48.390625 35.5 
Q 48.390625 41.453125 44.890625 44.921875 
Q 41.40625 48.390625 35.40625 48.390625 
Q 28.71875 48.390625 23.578125 44.15625 
Q 18.453125 39.9375 15.828125 32.171875 
z
M 55.90625 25.203125 
L 14.109375 25.203125 
Q 13.8125 23.34375 13.71875 22.265625 
Q 13.625 21.1875 13.625 20.40625 
Q 13.625 13.625 17.796875 9.90625 
Q 21.96875 6.203125 29.59375 6.203125 
Q 35.453125 6.203125 40.671875 7.515625 
Q 45.90625 8.84375 50.390625 11.375 
L 48.6875 2.484375 
Q 43.84375 0.53125 38.6875 -0.4375 
Q 33.546875 -1.421875 28.21875 -1.421875 
Q 16.84375 -1.421875 10.71875 4.015625 
Q 4.59375 9.46875 4.59375 19.484375 
Q 4.59375 28.03125 7.640625 35.375 
Q 10.6875 42.71875 16.609375 48.484375 
Q 20.40625 52.09375 25.65625 54.046875 
Q 30.90625 56 36.8125 56 
Q 46.09375 56 51.578125 50.4375 
Q 57.078125 44.875 57.078125 35.5 
Q 57.078125 33.25 56.78125 30.6875 
Q 56.5 28.125 55.90625 25.203125 
z
" id="DejaVuSans-Oblique-101"/>
       <path d="M 49.515625 33.40625 
Q 49.515625 40.484375 46.265625 44.484375 
Q 43.015625 48.484375 37.3125 48.484375 
Q 33.15625 48.484375 29.515625 46.453125 
Q 25.875 44.4375 23.1875 40.578125 
Q 20.359375 36.53125 18.71875 31.171875 
Q 17.09375 25.828125 17.09375 20.515625 
Q 17.09375 13.765625 20.28125 9.9375 
Q 23.484375 6.109375 29.109375 6.109375 
Q 33.34375 6.109375 36.953125 8.078125 
Q 40.578125 10.0625 43.3125 13.921875 
Q 46.09375 17.921875 47.796875 23.234375 
Q 49.515625 28.5625 49.515625 33.40625 
z
M 21.578125 46.390625 
Q 24.90625 50.875 29.90625 53.4375 
Q 34.90625 56 40.375 56 
Q 48.78125 56 53.734375 50.328125 
Q 58.6875 44.671875 58.6875 35.015625 
Q 58.6875 27.09375 55.78125 19.671875 
Q 52.875 12.25 47.515625 6.5 
Q 44 2.6875 39.40625 0.625 
Q 34.8125 -1.421875 29.78125 -1.421875 
Q 24.46875 -1.421875 20.5625 1.015625 
Q 16.65625 3.46875 14.203125 8.296875 
L 12.59375 0 
L 3.609375 0 
L 18.40625 75.984375 
L 27.390625 75.984375 
z
" id="DejaVuSans-Oblique-98"/>
      </defs>
      <g transform="translate(110.957445 235.1875)scale(0.15 -0.15)">
       <use transform="translate(0 0.390625)" xlink:href="#DejaVuSans-Oblique-946"/>
       <use transform="translate(63.818359 -16.015625)scale(0.7)" xlink:href="#DejaVuSans-Oblique-115"/>
       <use transform="translate(100.288086 -16.015625)scale(0.7)" xlink:href="#DejaVuSans-Oblique-101"/>
       <use transform="translate(143.354492 -16.015625)scale(0.7)" xlink:href="#DejaVuSans-Oblique-98"/>
      </g>
     </g>
    </g>
    <g id="xtick_8">
     <g id="line2d_8">
      <g>
       <use style="stroke:#000000;stroke-width:0.8;" x="135.129504" xlink:href="#m4fd9e03184" y="216.6375"/>
      </g>
     </g>
     <g id="text_8">
      <!-- $\beta_{set}$ -->
      <g transform="translate(122.079504 235.1875)scale(0.15 -0.15)">
       <use transform="translate(0 0.390625)" xlink:href="#DejaVuSans-Oblique-946"/>
       <use transform="translate(63.818359 -16.015625)scale(0.7)" xlink:href="#DejaVuSans-Oblique-115"/>
       <use transform="translate(100.288086 -16.015625)scale(0.7)" xlink:href="#DejaVuSans-Oblique-101"/>
       <use transform="translate(143.354492 -16.015625)scale(0.7)" xlink:href="#DejaVuSans-Oblique-116"/>
      </g>
     </g>
    </g>
    <g id="xtick_9">
     <g id="line2d_9">
      <g>
       <use style="stroke:#000000;stroke-width:0.8;" x="144.976562" xlink:href="#m4fd9e03184" y="216.6375"/>
      </g>
     </g>
     <g id="text_9">
      <!-- $\alpha_{PM}$ -->
      <defs>
       <path d="M 40.921875 25.4375 
L 40.96875 36.71875 
Q 41.015625 48.25 32.328125 48.296875 
Q 25.828125 48.34375 21.78125 42.921875 
Q 16.703125 36.234375 14.984375 27.296875 
Q 12.890625 16.546875 15.53125 11.421875 
Q 18.265625 6.203125 24.171875 6.203125 
Q 30.71875 6.203125 36.234375 16.609375 
z
M 33.84375 55.90625 
Q 49.078125 56.15625 48.875 40.375 
Q 48.875 40.375 56.5 54.6875 
L 64.5 54.6875 
L 48.734375 25.046875 
L 48.578125 14.359375 
Q 48.578125 11.96875 49.90625 9.96875 
Q 51.421875 7.625 52.984375 7.625 
L 57.328125 7.625 
L 55.859375 0 
L 50.4375 0 
Q 45.84375 0 42.53125 4.109375 
Q 40.96875 6.15625 40.921875 10.453125 
Q 37.75 5.21875 32.28125 0.78125 
Q 29.6875 -1.265625 22.703125 -1.21875 
Q 11.28125 -1.125 7.125 6.203125 
Q 2.875 13.8125 5.515625 27.296875 
Q 8.34375 41.796875 15.765625 48.390625 
Q 24.125 55.765625 33.84375 55.90625 
z
" id="DejaVuSans-Oblique-945"/>
       <path d="M 16.890625 72.90625 
L 39.703125 72.90625 
Q 49.65625 72.90625 54.875 68.265625 
Q 60.109375 63.625 60.109375 54.6875 
Q 60.109375 42.671875 52.390625 35.984375 
Q 44.671875 29.296875 30.71875 29.296875 
L 18.3125 29.296875 
L 12.59375 0 
L 2.6875 0 
z
M 25.203125 64.796875 
L 19.921875 37.40625 
L 32.328125 37.40625 
Q 40.71875 37.40625 45.203125 41.703125 
Q 49.703125 46 49.703125 54 
Q 49.703125 59.125 46.65625 61.953125 
Q 43.609375 64.796875 38.09375 64.796875 
z
" id="DejaVuSans-Oblique-80"/>
      </defs>
      <g transform="translate(132.076562 235.035156)scale(0.15 -0.15)">
       <use transform="translate(0 0.84375)" xlink:href="#DejaVuSans-Oblique-945"/>
       <use transform="translate(65.917969 -15.5625)scale(0.7)" xlink:href="#DejaVuSans-Oblique-80"/>
       <use transform="translate(108.129883 -15.5625)scale(0.7)" xlink:href="#DejaVuSans-Oblique-77"/>
      </g>
     </g>
    </g>
    <g id="xtick_10">
     <g id="line2d_10">
      <g>
       <use style="stroke:#000000;stroke-width:0.8;" x="154.823621" xlink:href="#m4fd9e03184" y="216.6375"/>
      </g>
     </g>
     <g id="text_10">
      <!-- $\beta_{Mo}$ -->
      <defs>
       <path d="M 25.390625 -1.421875 
Q 15.765625 -1.421875 10.171875 4.515625 
Q 4.59375 10.453125 4.59375 20.703125 
Q 4.59375 26.65625 6.515625 32.828125 
Q 8.453125 39.015625 11.53125 43.21875 
Q 16.359375 49.75 22.3125 52.875 
Q 28.265625 56 35.796875 56 
Q 45.125 56 50.859375 50.1875 
Q 56.59375 44.390625 56.59375 35.015625 
Q 56.59375 28.515625 54.6875 22.0625 
Q 52.78125 15.625 49.703125 11.375 
Q 44.921875 4.828125 38.96875 1.703125 
Q 33.015625 -1.421875 25.390625 -1.421875 
z
M 13.921875 21 
Q 13.921875 13.578125 17.015625 9.890625 
Q 20.125 6.203125 26.421875 6.203125 
Q 35.453125 6.203125 41.375 14.078125 
Q 47.3125 21.96875 47.3125 34.078125 
Q 47.3125 41.15625 44.140625 44.765625 
Q 40.96875 48.390625 34.8125 48.390625 
Q 29.734375 48.390625 25.78125 46.015625 
Q 21.828125 43.65625 18.703125 38.8125 
Q 16.40625 35.203125 15.15625 30.5625 
Q 13.921875 25.921875 13.921875 21 
z
" id="DejaVuSans-Oblique-111"/>
      </defs>
      <g transform="translate(142.073621 235.1875)scale(0.15 -0.15)">
       <use transform="translate(0 0.390625)" xlink:href="#DejaVuSans-Oblique-946"/>
       <use transform="translate(63.818359 -16.015625)scale(0.7)" xlink:href="#DejaVuSans-Oblique-77"/>
       <use transform="translate(124.213867 -16.015625)scale(0.7)" xlink:href="#DejaVuSans-Oblique-111"/>
      </g>
     </g>
    </g>
    <g id="xtick_11">
     <g id="line2d_11">
      <g>
       <use style="stroke:#000000;stroke-width:0.8;" x="164.67068" xlink:href="#m4fd9e03184" y="216.6375"/>
      </g>
     </g>
     <g id="text_11">
      <!-- $c_{mlt}$ -->
      <defs>
       <path d="M 18.3125 75.984375 
L 27.296875 75.984375 
L 12.5 0 
L 3.515625 0 
z
" id="DejaVuSans-Oblique-108"/>
      </defs>
      <g transform="translate(151.69568 235.035156)scale(0.15 -0.15)">
       <use xlink:href="#DejaVuSans-Oblique-99"/>
       <use transform="translate(54.980469 -16.40625)scale(0.7)" xlink:href="#DejaVuSans-Oblique-109"/>
       <use transform="translate(123.168945 -16.40625)scale(0.7)" xlink:href="#DejaVuSans-Oblique-108"/>
       <use transform="translate(142.617188 -16.40625)scale(0.7)" xlink:href="#DejaVuSans-Oblique-116"/>
      </g>
     </g>
    </g>
    <g id="xtick_12">
     <g id="line2d_12">
      <g>
       <use style="stroke:#000000;stroke-width:0.8;" x="174.517739" xlink:href="#m4fd9e03184" y="216.6375"/>
      </g>
     </g>
     <g id="text_12">
      <!-- $\alpha_{CM}$ -->
      <defs>
       <path d="M 69.484375 67.28125 
L 67.484375 56.890625 
Q 62.796875 61.625 57.546875 63.921875 
Q 52.296875 66.21875 46.1875 66.21875 
Q 37.84375 66.21875 31.515625 62.203125 
Q 25.203125 58.203125 20.609375 50 
Q 17.671875 44.734375 16.125 38.84375 
Q 14.59375 32.953125 14.59375 27 
Q 14.59375 17.046875 19.75 11.8125 
Q 24.90625 6.59375 34.71875 6.59375 
Q 41.5 6.59375 47.75 8.765625 
Q 54 10.9375 59.90625 15.28125 
L 57.625 3.609375 
Q 51.8125 1.125 45.875 -0.140625 
Q 39.9375 -1.421875 33.984375 -1.421875 
Q 19.96875 -1.421875 12.078125 6.1875 
Q 4.203125 13.8125 4.203125 27.390625 
Q 4.203125 36.078125 7.203125 44.46875 
Q 10.203125 52.875 15.828125 59.8125 
Q 21.78125 67.1875 29.421875 70.703125 
Q 37.0625 74.21875 47.21875 74.21875 
Q 53.46875 74.21875 59.0625 72.484375 
Q 64.65625 70.75 69.484375 67.28125 
z
" id="DejaVuSans-Oblique-67"/>
      </defs>
      <g transform="translate(161.167739 235.035156)scale(0.15 -0.15)">
       <use transform="translate(0 0.84375)" xlink:href="#DejaVuSans-Oblique-945"/>
       <use transform="translate(65.917969 -15.5625)scale(0.7)" xlink:href="#DejaVuSans-Oblique-67"/>
       <use transform="translate(114.794922 -15.5625)scale(0.7)" xlink:href="#DejaVuSans-Oblique-77"/>
      </g>
     </g>
    </g>
    <g id="xtick_13">
     <g id="line2d_13">
      <g>
       <use style="stroke:#000000;stroke-width:0.8;" x="184.364798" xlink:href="#m4fd9e03184" y="216.6375"/>
      </g>
     </g>
     <g id="text_13">
      <!-- $r_{t0}$ -->
      <defs>
       <path d="M 44.578125 46.390625 
Q 43.21875 47.125 41.453125 47.515625 
Q 39.703125 47.90625 37.703125 47.90625 
Q 30.515625 47.90625 25.140625 42.453125 
Q 19.78125 37.015625 18.015625 27.875 
L 12.5 0 
L 3.515625 0 
L 14.203125 54.6875 
L 23.1875 54.6875 
L 21.484375 46.1875 
Q 25.046875 50.921875 30 53.453125 
Q 34.96875 56 40.578125 56 
Q 42.046875 56 43.453125 55.828125 
Q 44.875 55.671875 46.296875 55.28125 
z
" id="DejaVuSans-Oblique-114"/>
       <path d="M 31.78125 66.40625 
Q 24.171875 66.40625 20.328125 58.90625 
Q 16.5 51.421875 16.5 36.375 
Q 16.5 21.390625 20.328125 13.890625 
Q 24.171875 6.390625 31.78125 6.390625 
Q 39.453125 6.390625 43.28125 13.890625 
Q 47.125 21.390625 47.125 36.375 
Q 47.125 51.421875 43.28125 58.90625 
Q 39.453125 66.40625 31.78125 66.40625 
z
M 31.78125 74.21875 
Q 44.046875 74.21875 50.515625 64.515625 
Q 56.984375 54.828125 56.984375 36.375 
Q 56.984375 17.96875 50.515625 8.265625 
Q 44.046875 -1.421875 31.78125 -1.421875 
Q 19.53125 -1.421875 13.0625 8.265625 
Q 6.59375 17.96875 6.59375 36.375 
Q 6.59375 54.828125 13.0625 64.515625 
Q 19.53125 74.21875 31.78125 74.21875 
z
" id="DejaVuSans-48"/>
      </defs>
      <g transform="translate(175.664798 235.035156)scale(0.15 -0.15)">
       <use xlink:href="#DejaVuSans-Oblique-114"/>
       <use transform="translate(41.113281 -16.40625)scale(0.7)" xlink:href="#DejaVuSans-Oblique-116"/>
       <use transform="translate(68.55957 -16.40625)scale(0.7)" xlink:href="#DejaVuSans-48"/>
      </g>
     </g>
    </g>
    <g id="xtick_14">
     <g id="line2d_14">
      <g>
       <use style="stroke:#000000;stroke-width:0.8;" x="194.211857" xlink:href="#m4fd9e03184" y="216.6375"/>
      </g>
     </g>
     <g id="text_14">
      <!-- $\beta_{M0}$ -->
      <g transform="translate(181.311857 235.1875)scale(0.15 -0.15)">
       <use transform="translate(0 0.390625)" xlink:href="#DejaVuSans-Oblique-946"/>
       <use transform="translate(63.818359 -16.015625)scale(0.7)" xlink:href="#DejaVuSans-Oblique-77"/>
       <use transform="translate(124.213867 -16.015625)scale(0.7)" xlink:href="#DejaVuSans-48"/>
      </g>
     </g>
    </g>
    <g id="xtick_15">
     <g id="line2d_15">
      <g>
       <use style="stroke:#000000;stroke-width:0.8;" x="204.058915" xlink:href="#m4fd9e03184" y="216.6375"/>
      </g>
     </g>
     <g id="text_15">
      <!-- $r_{b0}$ -->
      <g transform="translate(194.083915 235.035156)scale(0.15 -0.15)">
       <use xlink:href="#DejaVuSans-Oblique-114"/>
       <use transform="translate(41.113281 -16.40625)scale(0.7)" xlink:href="#DejaVuSans-Oblique-98"/>
       <use transform="translate(85.546875 -16.40625)scale(0.7)" xlink:href="#DejaVuSans-48"/>
      </g>
     </g>
    </g>
    <g id="xtick_16">
     <g id="line2d_16">
      <g>
       <use style="stroke:#000000;stroke-width:0.8;" x="213.905974" xlink:href="#m4fd9e03184" y="216.6375"/>
      </g>
     </g>
     <g id="text_16">
      <!-- $\gamma_{P0}$ -->
      <defs>
       <path d="M 23.296875 46.09375 
L 28.71875 12.3125 
L 54 54.6875 
L 63.53125 54.6875 
L 30.8125 0 
L 26.765625 -20.796875 
L 17.78125 -20.796875 
L 21.828125 0 
L 15.4375 40.828125 
Q 14.453125 46.96875 9.8125 46.96875 
L 7.421875 46.96875 
L 8.890625 54.6875 
L 12.3125 54.6875 
Q 21.921875 54.6875 23.296875 46.09375 
z
" id="DejaVuSans-Oblique-947"/>
      </defs>
      <g transform="translate(202.730974 235.004687)scale(0.15 -0.15)">
       <use transform="translate(0 0.3125)" xlink:href="#DejaVuSans-Oblique-947"/>
       <use transform="translate(59.179688 -16.09375)scale(0.7)" xlink:href="#DejaVuSans-Oblique-80"/>
       <use transform="translate(101.391602 -16.09375)scale(0.7)" xlink:href="#DejaVuSans-48"/>
      </g>
     </g>
    </g>
    <g id="xtick_17">
     <g id="line2d_17">
      <g>
       <use style="stroke:#000000;stroke-width:0.8;" x="223.753033" xlink:href="#m4fd9e03184" y="216.6375"/>
      </g>
     </g>
     <g id="text_17">
      <!-- $\beta_{P}$ -->
      <g transform="translate(215.578033 235.1875)scale(0.15 -0.15)">
       <use transform="translate(0 0.390625)" xlink:href="#DejaVuSans-Oblique-946"/>
       <use transform="translate(63.818359 -16.015625)scale(0.7)" xlink:href="#DejaVuSans-Oblique-80"/>
      </g>
     </g>
    </g>
   </g>
   <g id="matplotlib.axis_2">
    <g id="ytick_1">
     <g id="line2d_18">
      <defs>
       <path d="M 0 0 
L -3.5 0 
" id="md41d85cffa" style="stroke:#000000;stroke-width:0.8;"/>
      </defs>
      <g>
       <use style="stroke:#000000;stroke-width:0.8;" x="61.276563" xlink:href="#md41d85cffa" y="196.8375"/>
      </g>
     </g>
     <g id="text_18">
      <!-- 0.00 -->
      <defs>
       <path d="M 10.6875 12.40625 
L 21 12.40625 
L 21 0 
L 10.6875 0 
z
" id="DejaVuSans-46"/>
      </defs>
      <g transform="translate(20.878125 202.536328)scale(0.15 -0.15)">
       <use xlink:href="#DejaVuSans-48"/>
       <use x="63.623047" xlink:href="#DejaVuSans-46"/>
       <use x="95.410156" xlink:href="#DejaVuSans-48"/>
       <use x="159.033203" xlink:href="#DejaVuSans-48"/>
      </g>
     </g>
    </g>
    <g id="ytick_2">
     <g id="line2d_19">
      <g>
       <use style="stroke:#000000;stroke-width:0.8;" x="61.276563" xlink:href="#md41d85cffa" y="172.0875"/>
      </g>
     </g>
     <g id="text_19">
      <!-- 0.25 -->
      <defs>
       <path d="M 19.1875 8.296875 
L 53.609375 8.296875 
L 53.609375 0 
L 7.328125 0 
L 7.328125 8.296875 
Q 12.9375 14.109375 22.625 23.890625 
Q 32.328125 33.6875 34.8125 36.53125 
Q 39.546875 41.84375 41.421875 45.53125 
Q 43.3125 49.21875 43.3125 52.78125 
Q 43.3125 58.59375 39.234375 62.25 
Q 35.15625 65.921875 28.609375 65.921875 
Q 23.96875 65.921875 18.8125 64.3125 
Q 13.671875 62.703125 7.8125 59.421875 
L 7.8125 69.390625 
Q 13.765625 71.78125 18.9375 73 
Q 24.125 74.21875 28.421875 74.21875 
Q 39.75 74.21875 46.484375 68.546875 
Q 53.21875 62.890625 53.21875 53.421875 
Q 53.21875 48.921875 51.53125 44.890625 
Q 49.859375 40.875 45.40625 35.40625 
Q 44.1875 33.984375 37.640625 27.21875 
Q 31.109375 20.453125 19.1875 8.296875 
z
" id="DejaVuSans-50"/>
       <path d="M 10.796875 72.90625 
L 49.515625 72.90625 
L 49.515625 64.59375 
L 19.828125 64.59375 
L 19.828125 46.734375 
Q 21.96875 47.46875 24.109375 47.828125 
Q 26.265625 48.1875 28.421875 48.1875 
Q 40.625 48.1875 47.75 41.5 
Q 54.890625 34.8125 54.890625 23.390625 
Q 54.890625 11.625 47.5625 5.09375 
Q 40.234375 -1.421875 26.90625 -1.421875 
Q 22.3125 -1.421875 17.546875 -0.640625 
Q 12.796875 0.140625 7.71875 1.703125 
L 7.71875 11.625 
Q 12.109375 9.234375 16.796875 8.0625 
Q 21.484375 6.890625 26.703125 6.890625 
Q 35.15625 6.890625 40.078125 11.328125 
Q 45.015625 15.765625 45.015625 23.390625 
Q 45.015625 31 40.078125 35.4375 
Q 35.15625 39.890625 26.703125 39.890625 
Q 22.75 39.890625 18.8125 39.015625 
Q 14.890625 38.140625 10.796875 36.28125 
z
" id="DejaVuSans-53"/>
      </defs>
      <g transform="translate(20.878125 177.786328)scale(0.15 -0.15)">
       <use xlink:href="#DejaVuSans-48"/>
       <use x="63.623047" xlink:href="#DejaVuSans-46"/>
       <use x="95.410156" xlink:href="#DejaVuSans-50"/>
       <use x="159.033203" xlink:href="#DejaVuSans-53"/>
      </g>
     </g>
    </g>
    <g id="ytick_3">
     <g id="line2d_20">
      <g>
       <use style="stroke:#000000;stroke-width:0.8;" x="61.276563" xlink:href="#md41d85cffa" y="147.3375"/>
      </g>
     </g>
     <g id="text_20">
      <!-- 0.50 -->
      <g transform="translate(20.878125 153.036328)scale(0.15 -0.15)">
       <use xlink:href="#DejaVuSans-48"/>
       <use x="63.623047" xlink:href="#DejaVuSans-46"/>
       <use x="95.410156" xlink:href="#DejaVuSans-53"/>
       <use x="159.033203" xlink:href="#DejaVuSans-48"/>
      </g>
     </g>
    </g>
    <g id="ytick_4">
     <g id="line2d_21">
      <g>
       <use style="stroke:#000000;stroke-width:0.8;" x="61.276563" xlink:href="#md41d85cffa" y="122.5875"/>
      </g>
     </g>
     <g id="text_21">
      <!-- 0.75 -->
      <defs>
       <path d="M 8.203125 72.90625 
L 55.078125 72.90625 
L 55.078125 68.703125 
L 28.609375 0 
L 18.3125 0 
L 43.21875 64.59375 
L 8.203125 64.59375 
z
" id="DejaVuSans-55"/>
      </defs>
      <g transform="translate(20.878125 128.286328)scale(0.15 -0.15)">
       <use xlink:href="#DejaVuSans-48"/>
       <use x="63.623047" xlink:href="#DejaVuSans-46"/>
       <use x="95.410156" xlink:href="#DejaVuSans-55"/>
       <use x="159.033203" xlink:href="#DejaVuSans-53"/>
      </g>
     </g>
    </g>
    <g id="ytick_5">
     <g id="line2d_22">
      <g>
       <use style="stroke:#000000;stroke-width:0.8;" x="61.276563" xlink:href="#md41d85cffa" y="97.8375"/>
      </g>
     </g>
     <g id="text_22">
      <!-- 1.00 -->
      <defs>
       <path d="M 12.40625 8.296875 
L 28.515625 8.296875 
L 28.515625 63.921875 
L 10.984375 60.40625 
L 10.984375 69.390625 
L 28.421875 72.90625 
L 38.28125 72.90625 
L 38.28125 8.296875 
L 54.390625 8.296875 
L 54.390625 0 
L 12.40625 0 
z
" id="DejaVuSans-49"/>
      </defs>
      <g transform="translate(20.878125 103.536328)scale(0.15 -0.15)">
       <use xlink:href="#DejaVuSans-49"/>
       <use x="63.623047" xlink:href="#DejaVuSans-46"/>
       <use x="95.410156" xlink:href="#DejaVuSans-48"/>
       <use x="159.033203" xlink:href="#DejaVuSans-48"/>
      </g>
     </g>
    </g>
    <g id="text_23">
     <!-- scalled values -->
     <defs>
      <path d="M 44.28125 53.078125 
L 44.28125 44.578125 
Q 40.484375 46.53125 36.375 47.5 
Q 32.28125 48.484375 27.875 48.484375 
Q 21.1875 48.484375 17.84375 46.4375 
Q 14.5 44.390625 14.5 40.28125 
Q 14.5 37.15625 16.890625 35.375 
Q 19.28125 33.59375 26.515625 31.984375 
L 29.59375 31.296875 
Q 39.15625 29.25 43.1875 25.515625 
Q 47.21875 21.78125 47.21875 15.09375 
Q 47.21875 7.46875 41.1875 3.015625 
Q 35.15625 -1.421875 24.609375 -1.421875 
Q 20.21875 -1.421875 15.453125 -0.5625 
Q 10.6875 0.296875 5.421875 2 
L 5.421875 11.28125 
Q 10.40625 8.6875 15.234375 7.390625 
Q 20.0625 6.109375 24.8125 6.109375 
Q 31.15625 6.109375 34.5625 8.28125 
Q 37.984375 10.453125 37.984375 14.40625 
Q 37.984375 18.0625 35.515625 20.015625 
Q 33.0625 21.96875 24.703125 23.78125 
L 21.578125 24.515625 
Q 13.234375 26.265625 9.515625 29.90625 
Q 5.8125 33.546875 5.8125 39.890625 
Q 5.8125 47.609375 11.28125 51.796875 
Q 16.75 56 26.8125 56 
Q 31.78125 56 36.171875 55.265625 
Q 40.578125 54.546875 44.28125 53.078125 
z
" id="DejaVuSans-115"/>
      <path d="M 48.78125 52.59375 
L 48.78125 44.1875 
Q 44.96875 46.296875 41.140625 47.34375 
Q 37.3125 48.390625 33.40625 48.390625 
Q 24.65625 48.390625 19.8125 42.84375 
Q 14.984375 37.3125 14.984375 27.296875 
Q 14.984375 17.28125 19.8125 11.734375 
Q 24.65625 6.203125 33.40625 6.203125 
Q 37.3125 6.203125 41.140625 7.25 
Q 44.96875 8.296875 48.78125 10.40625 
L 48.78125 2.09375 
Q 45.015625 0.34375 40.984375 -0.53125 
Q 36.96875 -1.421875 32.421875 -1.421875 
Q 20.0625 -1.421875 12.78125 6.34375 
Q 5.515625 14.109375 5.515625 27.296875 
Q 5.515625 40.671875 12.859375 48.328125 
Q 20.21875 56 33.015625 56 
Q 37.15625 56 41.109375 55.140625 
Q 45.0625 54.296875 48.78125 52.59375 
z
" id="DejaVuSans-99"/>
      <path d="M 34.28125 27.484375 
Q 23.390625 27.484375 19.1875 25 
Q 14.984375 22.515625 14.984375 16.5 
Q 14.984375 11.71875 18.140625 8.90625 
Q 21.296875 6.109375 26.703125 6.109375 
Q 34.1875 6.109375 38.703125 11.40625 
Q 43.21875 16.703125 43.21875 25.484375 
L 43.21875 27.484375 
z
M 52.203125 31.203125 
L 52.203125 0 
L 43.21875 0 
L 43.21875 8.296875 
Q 40.140625 3.328125 35.546875 0.953125 
Q 30.953125 -1.421875 24.3125 -1.421875 
Q 15.921875 -1.421875 10.953125 3.296875 
Q 6 8.015625 6 15.921875 
Q 6 25.140625 12.171875 29.828125 
Q 18.359375 34.515625 30.609375 34.515625 
L 43.21875 34.515625 
L 43.21875 35.40625 
Q 43.21875 41.609375 39.140625 45 
Q 35.0625 48.390625 27.6875 48.390625 
Q 23 48.390625 18.546875 47.265625 
Q 14.109375 46.140625 10.015625 43.890625 
L 10.015625 52.203125 
Q 14.9375 54.109375 19.578125 55.046875 
Q 24.21875 56 28.609375 56 
Q 40.484375 56 46.34375 49.84375 
Q 52.203125 43.703125 52.203125 31.203125 
z
" id="DejaVuSans-97"/>
      <path d="M 9.421875 75.984375 
L 18.40625 75.984375 
L 18.40625 0 
L 9.421875 0 
z
" id="DejaVuSans-108"/>
      <path d="M 56.203125 29.59375 
L 56.203125 25.203125 
L 14.890625 25.203125 
Q 15.484375 15.921875 20.484375 11.0625 
Q 25.484375 6.203125 34.421875 6.203125 
Q 39.59375 6.203125 44.453125 7.46875 
Q 49.3125 8.734375 54.109375 11.28125 
L 54.109375 2.78125 
Q 49.265625 0.734375 44.1875 -0.34375 
Q 39.109375 -1.421875 33.890625 -1.421875 
Q 20.796875 -1.421875 13.15625 6.1875 
Q 5.515625 13.8125 5.515625 26.8125 
Q 5.515625 40.234375 12.765625 48.109375 
Q 20.015625 56 32.328125 56 
Q 43.359375 56 49.78125 48.890625 
Q 56.203125 41.796875 56.203125 29.59375 
z
M 47.21875 32.234375 
Q 47.125 39.59375 43.09375 43.984375 
Q 39.0625 48.390625 32.421875 48.390625 
Q 24.90625 48.390625 20.390625 44.140625 
Q 15.875 39.890625 15.1875 32.171875 
z
" id="DejaVuSans-101"/>
      <path d="M 45.40625 46.390625 
L 45.40625 75.984375 
L 54.390625 75.984375 
L 54.390625 0 
L 45.40625 0 
L 45.40625 8.203125 
Q 42.578125 3.328125 38.25 0.953125 
Q 33.9375 -1.421875 27.875 -1.421875 
Q 17.96875 -1.421875 11.734375 6.484375 
Q 5.515625 14.40625 5.515625 27.296875 
Q 5.515625 40.1875 11.734375 48.09375 
Q 17.96875 56 27.875 56 
Q 33.9375 56 38.25 53.625 
Q 42.578125 51.265625 45.40625 46.390625 
z
M 14.796875 27.296875 
Q 14.796875 17.390625 18.875 11.75 
Q 22.953125 6.109375 30.078125 6.109375 
Q 37.203125 6.109375 41.296875 11.75 
Q 45.40625 17.390625 45.40625 27.296875 
Q 45.40625 37.203125 41.296875 42.84375 
Q 37.203125 48.484375 30.078125 48.484375 
Q 22.953125 48.484375 18.875 42.84375 
Q 14.796875 37.203125 14.796875 27.296875 
z
" id="DejaVuSans-100"/>
      <path id="DejaVuSans-32"/>
      <path d="M 2.984375 54.6875 
L 12.5 54.6875 
L 29.59375 8.796875 
L 46.6875 54.6875 
L 56.203125 54.6875 
L 35.6875 0 
L 23.484375 0 
z
" id="DejaVuSans-118"/>
      <path d="M 8.5 21.578125 
L 8.5 54.6875 
L 17.484375 54.6875 
L 17.484375 21.921875 
Q 17.484375 14.15625 20.5 10.265625 
Q 23.53125 6.390625 29.59375 6.390625 
Q 36.859375 6.390625 41.078125 11.03125 
Q 45.3125 15.671875 45.3125 23.6875 
L 45.3125 54.6875 
L 54.296875 54.6875 
L 54.296875 0 
L 45.3125 0 
L 45.3125 8.40625 
Q 42.046875 3.421875 37.71875 1 
Q 33.40625 -1.421875 27.6875 -1.421875 
Q 18.265625 -1.421875 13.375 4.4375 
Q 8.5 10.296875 8.5 21.578125 
z
M 31.109375 56 
z
" id="DejaVuSans-117"/>
     </defs>
     <g transform="translate(14.798438 182.635938)rotate(-90)scale(0.1 -0.1)">
      <use xlink:href="#DejaVuSans-115"/>
      <use x="52.099609" xlink:href="#DejaVuSans-99"/>
      <use x="107.080078" xlink:href="#DejaVuSans-97"/>
      <use x="168.359375" xlink:href="#DejaVuSans-108"/>
      <use x="196.142578" xlink:href="#DejaVuSans-108"/>
      <use x="223.925781" xlink:href="#DejaVuSans-101"/>
      <use x="285.449219" xlink:href="#DejaVuSans-100"/>
      <use x="348.925781" xlink:href="#DejaVuSans-32"/>
      <use x="380.712891" xlink:href="#DejaVuSans-118"/>
      <use x="439.892578" xlink:href="#DejaVuSans-97"/>
      <use x="501.171875" xlink:href="#DejaVuSans-108"/>
      <use x="528.955078" xlink:href="#DejaVuSans-117"/>
      <use x="592.333984" xlink:href="#DejaVuSans-101"/>
      <use x="653.857422" xlink:href="#DejaVuSans-115"/>
     </g>
    </g>
   </g>
   <g id="line2d_23">
    <path clip-path="url(#pc85ad23b6b)" d="M 66.200092 169.634797 
L 66.200092 194.459122 
" style="fill:none;stroke:#000000;stroke-linecap:square;stroke-width:1.5;"/>
   </g>
   <g id="line2d_24">
    <path clip-path="url(#pc85ad23b6b)" d="M 66.200092 121.968131 
L 66.200092 100.513176 
" style="fill:none;stroke:#000000;stroke-linecap:square;stroke-width:1.5;"/>
   </g>
   <g id="line2d_25">
    <path clip-path="url(#pc85ad23b6b)" d="M 64.96921 194.459122 
L 67.430974 194.459122 
" style="fill:none;stroke:#000000;stroke-linecap:square;stroke-width:1.5;"/>
   </g>
   <g id="line2d_26">
    <path clip-path="url(#pc85ad23b6b)" d="M 64.96921 100.513176 
L 67.430974 100.513176 
" style="fill:none;stroke:#000000;stroke-linecap:square;stroke-width:1.5;"/>
   </g>
   <g id="line2d_27"/>
   <g id="line2d_28">
    <path clip-path="url(#pc85ad23b6b)" d="M 76.047151 182.443356 
L 76.047151 196.540203 
" style="fill:none;stroke:#000000;stroke-linecap:square;stroke-width:1.5;"/>
   </g>
   <g id="line2d_29">
    <path clip-path="url(#pc85ad23b6b)" d="M 76.047151 126.601014 
L 76.047151 98.630293 
" style="fill:none;stroke:#000000;stroke-linecap:square;stroke-width:1.5;"/>
   </g>
   <g id="line2d_30">
    <path clip-path="url(#pc85ad23b6b)" d="M 74.816268 196.540203 
L 77.278033 196.540203 
" style="fill:none;stroke:#000000;stroke-linecap:square;stroke-width:1.5;"/>
   </g>
   <g id="line2d_31">
    <path clip-path="url(#pc85ad23b6b)" d="M 74.816268 98.630293 
L 77.278033 98.630293 
" style="fill:none;stroke:#000000;stroke-linecap:square;stroke-width:1.5;"/>
   </g>
   <g id="line2d_32"/>
   <g id="line2d_33">
    <path clip-path="url(#pc85ad23b6b)" d="M 85.89421 174.416329 
L 85.89421 195.351014 
" style="fill:none;stroke:#000000;stroke-linecap:square;stroke-width:1.5;"/>
   </g>
   <g id="line2d_34">
    <path clip-path="url(#pc85ad23b6b)" d="M 85.89421 123.652815 
L 85.89421 98.233896 
" style="fill:none;stroke:#000000;stroke-linecap:square;stroke-width:1.5;"/>
   </g>
   <g id="line2d_35">
    <path clip-path="url(#pc85ad23b6b)" d="M 84.663327 195.351014 
L 87.125092 195.351014 
" style="fill:none;stroke:#000000;stroke-linecap:square;stroke-width:1.5;"/>
   </g>
   <g id="line2d_36">
    <path clip-path="url(#pc85ad23b6b)" d="M 84.663327 98.233896 
L 87.125092 98.233896 
" style="fill:none;stroke:#000000;stroke-linecap:square;stroke-width:1.5;"/>
   </g>
   <g id="line2d_37"/>
   <g id="line2d_38">
    <path clip-path="url(#pc85ad23b6b)" d="M 95.741268 156.033446 
L 95.741268 195.152815 
" style="fill:none;stroke:#000000;stroke-linecap:square;stroke-width:1.5;"/>
   </g>
   <g id="line2d_39">
    <path clip-path="url(#pc85ad23b6b)" d="M 95.741268 119.664077 
L 95.741268 98.035698 
" style="fill:none;stroke:#000000;stroke-linecap:square;stroke-width:1.5;"/>
   </g>
   <g id="line2d_40">
    <path clip-path="url(#pc85ad23b6b)" d="M 94.510386 195.152815 
L 96.972151 195.152815 
" style="fill:none;stroke:#000000;stroke-linecap:square;stroke-width:1.5;"/>
   </g>
   <g id="line2d_41">
    <path clip-path="url(#pc85ad23b6b)" d="M 94.510386 98.035698 
L 96.972151 98.035698 
" style="fill:none;stroke:#000000;stroke-linecap:square;stroke-width:1.5;"/>
   </g>
   <g id="line2d_42"/>
   <g id="line2d_43">
    <path clip-path="url(#pc85ad23b6b)" d="M 105.588327 169.362275 
L 105.588327 194.65732 
" style="fill:none;stroke:#000000;stroke-linecap:square;stroke-width:1.5;"/>
   </g>
   <g id="line2d_44">
    <path clip-path="url(#pc85ad23b6b)" d="M 105.588327 137.055968 
L 105.588327 111.612275 
" style="fill:none;stroke:#000000;stroke-linecap:square;stroke-width:1.5;"/>
   </g>
   <g id="line2d_45">
    <path clip-path="url(#pc85ad23b6b)" d="M 104.357445 194.65732 
L 106.81921 194.65732 
" style="fill:none;stroke:#000000;stroke-linecap:square;stroke-width:1.5;"/>
   </g>
   <g id="line2d_46">
    <path clip-path="url(#pc85ad23b6b)" d="M 104.357445 111.612275 
L 106.81921 111.612275 
" style="fill:none;stroke:#000000;stroke-linecap:square;stroke-width:1.5;"/>
   </g>
   <g id="line2d_47"/>
   <g id="line2d_48">
    <path clip-path="url(#pc85ad23b6b)" d="M 115.435386 175.432095 
L 115.435386 196.441104 
" style="fill:none;stroke:#000000;stroke-linecap:square;stroke-width:1.5;"/>
   </g>
   <g id="line2d_49">
    <path clip-path="url(#pc85ad23b6b)" d="M 115.435386 123.132545 
L 115.435386 98.035698 
" style="fill:none;stroke:#000000;stroke-linecap:square;stroke-width:1.5;"/>
   </g>
   <g id="line2d_50">
    <path clip-path="url(#pc85ad23b6b)" d="M 114.204504 196.441104 
L 116.666268 196.441104 
" style="fill:none;stroke:#000000;stroke-linecap:square;stroke-width:1.5;"/>
   </g>
   <g id="line2d_51">
    <path clip-path="url(#pc85ad23b6b)" d="M 114.204504 98.035698 
L 116.666268 98.035698 
" style="fill:none;stroke:#000000;stroke-linecap:square;stroke-width:1.5;"/>
   </g>
   <g id="line2d_52"/>
   <g id="line2d_53">
    <path clip-path="url(#pc85ad23b6b)" d="M 125.282445 179.272185 
L 125.282445 189.603266 
" style="fill:none;stroke:#000000;stroke-linecap:square;stroke-width:1.5;"/>
   </g>
   <g id="line2d_54">
    <path clip-path="url(#pc85ad23b6b)" d="M 125.282445 140.301464 
L 125.282445 100.612275 
" style="fill:none;stroke:#000000;stroke-linecap:square;stroke-width:1.5;"/>
   </g>
   <g id="line2d_55">
    <path clip-path="url(#pc85ad23b6b)" d="M 124.051563 189.603266 
L 126.513327 189.603266 
" style="fill:none;stroke:#000000;stroke-linecap:square;stroke-width:1.5;"/>
   </g>
   <g id="line2d_56">
    <path clip-path="url(#pc85ad23b6b)" d="M 124.051563 100.612275 
L 126.513327 100.612275 
" style="fill:none;stroke:#000000;stroke-linecap:square;stroke-width:1.5;"/>
   </g>
   <g id="line2d_57"/>
   <g id="line2d_58">
    <path clip-path="url(#pc85ad23b6b)" d="M 135.129504 174.88705 
L 135.129504 184.945608 
" style="fill:none;stroke:#000000;stroke-linecap:square;stroke-width:1.5;"/>
   </g>
   <g id="line2d_59">
    <path clip-path="url(#pc85ad23b6b)" d="M 135.129504 144.314977 
L 135.129504 105.269932 
" style="fill:none;stroke:#000000;stroke-linecap:square;stroke-width:1.5;"/>
   </g>
   <g id="line2d_60">
    <path clip-path="url(#pc85ad23b6b)" d="M 133.898621 184.945608 
L 136.360386 184.945608 
" style="fill:none;stroke:#000000;stroke-linecap:square;stroke-width:1.5;"/>
   </g>
   <g id="line2d_61">
    <path clip-path="url(#pc85ad23b6b)" d="M 133.898621 105.269932 
L 136.360386 105.269932 
" style="fill:none;stroke:#000000;stroke-linecap:square;stroke-width:1.5;"/>
   </g>
   <g id="line2d_62"/>
   <g id="line2d_63">
    <path clip-path="url(#pc85ad23b6b)" d="M 144.976562 173.004167 
L 144.976562 196.143806 
" style="fill:none;stroke:#000000;stroke-linecap:square;stroke-width:1.5;"/>
   </g>
   <g id="line2d_64">
    <path clip-path="url(#pc85ad23b6b)" d="M 144.976562 129.920833 
L 144.976562 99.720383 
" style="fill:none;stroke:#000000;stroke-linecap:square;stroke-width:1.5;"/>
   </g>
   <g id="line2d_65">
    <path clip-path="url(#pc85ad23b6b)" d="M 143.74568 196.143806 
L 146.207445 196.143806 
" style="fill:none;stroke:#000000;stroke-linecap:square;stroke-width:1.5;"/>
   </g>
   <g id="line2d_66">
    <path clip-path="url(#pc85ad23b6b)" d="M 143.74568 99.720383 
L 146.207445 99.720383 
" style="fill:none;stroke:#000000;stroke-linecap:square;stroke-width:1.5;"/>
   </g>
   <g id="line2d_67"/>
   <g id="line2d_68">
    <path clip-path="url(#pc85ad23b6b)" d="M 154.823621 180.634797 
L 154.823621 196.540203 
" style="fill:none;stroke:#000000;stroke-linecap:square;stroke-width:1.5;"/>
   </g>
   <g id="line2d_69">
    <path clip-path="url(#pc85ad23b6b)" d="M 154.823621 140.053716 
L 154.823621 99.918581 
" style="fill:none;stroke:#000000;stroke-linecap:square;stroke-width:1.5;"/>
   </g>
   <g id="line2d_70">
    <path clip-path="url(#pc85ad23b6b)" d="M 153.592739 196.540203 
L 156.054504 196.540203 
" style="fill:none;stroke:#000000;stroke-linecap:square;stroke-width:1.5;"/>
   </g>
   <g id="line2d_71">
    <path clip-path="url(#pc85ad23b6b)" d="M 153.592739 99.918581 
L 156.054504 99.918581 
" style="fill:none;stroke:#000000;stroke-linecap:square;stroke-width:1.5;"/>
   </g>
   <g id="line2d_72"/>
   <g id="line2d_73">
    <path clip-path="url(#pc85ad23b6b)" d="M 164.67068 170.650563 
L 164.67068 194.558221 
" style="fill:none;stroke:#000000;stroke-linecap:square;stroke-width:1.5;"/>
   </g>
   <g id="line2d_74">
    <path clip-path="url(#pc85ad23b6b)" d="M 164.67068 120.605518 
L 164.67068 98.134797 
" style="fill:none;stroke:#000000;stroke-linecap:square;stroke-width:1.5;"/>
   </g>
   <g id="line2d_75">
    <path clip-path="url(#pc85ad23b6b)" d="M 163.439798 194.558221 
L 165.901563 194.558221 
" style="fill:none;stroke:#000000;stroke-linecap:square;stroke-width:1.5;"/>
   </g>
   <g id="line2d_76">
    <path clip-path="url(#pc85ad23b6b)" d="M 163.439798 98.134797 
L 165.901563 98.134797 
" style="fill:none;stroke:#000000;stroke-linecap:square;stroke-width:1.5;"/>
   </g>
   <g id="line2d_77"/>
   <g id="line2d_78">
    <path clip-path="url(#pc85ad23b6b)" d="M 174.517739 176.051464 
L 174.517739 195.648311 
" style="fill:none;stroke:#000000;stroke-linecap:square;stroke-width:1.5;"/>
   </g>
   <g id="line2d_79">
    <path clip-path="url(#pc85ad23b6b)" d="M 174.517739 126.700113 
L 174.517739 98.630293 
" style="fill:none;stroke:#000000;stroke-linecap:square;stroke-width:1.5;"/>
   </g>
   <g id="line2d_80">
    <path clip-path="url(#pc85ad23b6b)" d="M 173.286857 195.648311 
L 175.748621 195.648311 
" style="fill:none;stroke:#000000;stroke-linecap:square;stroke-width:1.5;"/>
   </g>
   <g id="line2d_81">
    <path clip-path="url(#pc85ad23b6b)" d="M 173.286857 98.630293 
L 175.748621 98.630293 
" style="fill:none;stroke:#000000;stroke-linecap:square;stroke-width:1.5;"/>
   </g>
   <g id="line2d_82"/>
   <g id="line2d_83">
    <path clip-path="url(#pc85ad23b6b)" d="M 184.364798 174.366779 
L 184.364798 191.981644 
" style="fill:none;stroke:#000000;stroke-linecap:square;stroke-width:1.5;"/>
   </g>
   <g id="line2d_84">
    <path clip-path="url(#pc85ad23b6b)" d="M 184.364798 131.655068 
L 184.364798 98.332995 
" style="fill:none;stroke:#000000;stroke-linecap:square;stroke-width:1.5;"/>
   </g>
   <g id="line2d_85">
    <path clip-path="url(#pc85ad23b6b)" d="M 183.133915 191.981644 
L 185.59568 191.981644 
" style="fill:none;stroke:#000000;stroke-linecap:square;stroke-width:1.5;"/>
   </g>
   <g id="line2d_86">
    <path clip-path="url(#pc85ad23b6b)" d="M 183.133915 98.332995 
L 185.59568 98.332995 
" style="fill:none;stroke:#000000;stroke-linecap:square;stroke-width:1.5;"/>
   </g>
   <g id="line2d_87"/>
   <g id="line2d_88">
    <path clip-path="url(#pc85ad23b6b)" d="M 194.211857 179.693356 
L 194.211857 195.549212 
" style="fill:none;stroke:#000000;stroke-linecap:square;stroke-width:1.5;"/>
   </g>
   <g id="line2d_89">
    <path clip-path="url(#pc85ad23b6b)" d="M 194.211857 128.360023 
L 194.211857 102.396059 
" style="fill:none;stroke:#000000;stroke-linecap:square;stroke-width:1.5;"/>
   </g>
   <g id="line2d_90">
    <path clip-path="url(#pc85ad23b6b)" d="M 192.980974 195.549212 
L 195.442739 195.549212 
" style="fill:none;stroke:#000000;stroke-linecap:square;stroke-width:1.5;"/>
   </g>
   <g id="line2d_91">
    <path clip-path="url(#pc85ad23b6b)" d="M 192.980974 102.396059 
L 195.442739 102.396059 
" style="fill:none;stroke:#000000;stroke-linecap:square;stroke-width:1.5;"/>
   </g>
   <g id="line2d_92"/>
   <g id="line2d_93">
    <path clip-path="url(#pc85ad23b6b)" d="M 204.058915 187.101014 
L 204.058915 196.242905 
" style="fill:none;stroke:#000000;stroke-linecap:square;stroke-width:1.5;"/>
   </g>
   <g id="line2d_94">
    <path clip-path="url(#pc85ad23b6b)" d="M 204.058915 147.164077 
L 204.058915 101.206869 
" style="fill:none;stroke:#000000;stroke-linecap:square;stroke-width:1.5;"/>
   </g>
   <g id="line2d_95">
    <path clip-path="url(#pc85ad23b6b)" d="M 202.828033 196.242905 
L 205.289798 196.242905 
" style="fill:none;stroke:#000000;stroke-linecap:square;stroke-width:1.5;"/>
   </g>
   <g id="line2d_96">
    <path clip-path="url(#pc85ad23b6b)" d="M 202.828033 101.206869 
L 205.289798 101.206869 
" style="fill:none;stroke:#000000;stroke-linecap:square;stroke-width:1.5;"/>
   </g>
   <g id="line2d_97"/>
   <g id="line2d_98">
    <path clip-path="url(#pc85ad23b6b)" d="M 213.905974 159.378041 
L 213.905974 192.278941 
" style="fill:none;stroke:#000000;stroke-linecap:square;stroke-width:1.5;"/>
   </g>
   <g id="line2d_99">
    <path clip-path="url(#pc85ad23b6b)" d="M 213.905974 121.472635 
L 213.905974 97.8375 
" style="fill:none;stroke:#000000;stroke-linecap:square;stroke-width:1.5;"/>
   </g>
   <g id="line2d_100">
    <path clip-path="url(#pc85ad23b6b)" d="M 212.675092 192.278941 
L 215.136857 192.278941 
" style="fill:none;stroke:#000000;stroke-linecap:square;stroke-width:1.5;"/>
   </g>
   <g id="line2d_101">
    <path clip-path="url(#pc85ad23b6b)" d="M 212.675092 97.8375 
L 215.136857 97.8375 
" style="fill:none;stroke:#000000;stroke-linecap:square;stroke-width:1.5;"/>
   </g>
   <g id="line2d_102"/>
   <g id="line2d_103">
    <path clip-path="url(#pc85ad23b6b)" d="M 223.753033 169.956869 
L 223.753033 195.74741 
" style="fill:none;stroke:#000000;stroke-linecap:square;stroke-width:1.5;"/>
   </g>
   <g id="line2d_104">
    <path clip-path="url(#pc85ad23b6b)" d="M 223.753033 135.148311 
L 223.753033 103.28795 
" style="fill:none;stroke:#000000;stroke-linecap:square;stroke-width:1.5;"/>
   </g>
   <g id="line2d_105">
    <path clip-path="url(#pc85ad23b6b)" d="M 222.522151 195.74741 
L 224.983915 195.74741 
" style="fill:none;stroke:#000000;stroke-linecap:square;stroke-width:1.5;"/>
   </g>
   <g id="line2d_106">
    <path clip-path="url(#pc85ad23b6b)" d="M 222.522151 103.28795 
L 224.983915 103.28795 
" style="fill:none;stroke:#000000;stroke-linecap:square;stroke-width:1.5;"/>
   </g>
   <g id="line2d_107"/>
   <g id="patch_3">
    <path clip-path="url(#pc85ad23b6b)" d="M 63.738327 169.634797 
L 68.661857 169.634797 
L 68.661857 160.299381 
L 67.430974 149.715878 
L 68.661857 139.132375 
L 68.661857 121.968131 
L 63.738327 121.968131 
L 63.738327 139.132375 
L 64.96921 149.715878 
L 63.738327 160.299381 
L 63.738327 169.634797 
z
" style="fill:#ffffff;stroke:#000000;stroke-linejoin:miter;stroke-width:1.5;"/>
   </g>
   <g id="patch_4">
    <path clip-path="url(#pc85ad23b6b)" d="M 73.585386 182.443356 
L 78.508915 182.443356 
L 78.508915 169.794819 
L 77.278033 157.396059 
L 78.508915 144.997298 
L 78.508915 126.601014 
L 73.585386 126.601014 
L 73.585386 144.997298 
L 74.816268 157.396059 
L 73.585386 169.794819 
L 73.585386 182.443356 
z
" style="fill:#ffffff;stroke:#000000;stroke-linejoin:miter;stroke-width:1.5;"/>
   </g>
   <g id="patch_5">
    <path clip-path="url(#pc85ad23b6b)" d="M 83.432445 174.416329 
L 88.355974 174.416329 
L 88.355974 152.464456 
L 87.125092 141.193356 
L 88.355974 129.922255 
L 88.355974 123.652815 
L 83.432445 123.652815 
L 83.432445 129.922255 
L 84.663327 141.193356 
L 83.432445 152.464456 
L 83.432445 174.416329 
z
" style="fill:#ffffff;stroke:#000000;stroke-linejoin:miter;stroke-width:1.5;"/>
   </g>
   <g id="patch_6">
    <path clip-path="url(#pc85ad23b6b)" d="M 93.279504 156.033446 
L 98.203033 156.033446 
L 98.203033 139.705439 
L 96.972151 131.630293 
L 98.203033 123.555146 
L 98.203033 119.664077 
L 93.279504 119.664077 
L 93.279504 123.555146 
L 94.510386 131.630293 
L 93.279504 139.705439 
L 93.279504 156.033446 
z
" style="fill:#ffffff;stroke:#000000;stroke-linejoin:miter;stroke-width:1.5;"/>
   </g>
   <g id="patch_7">
    <path clip-path="url(#pc85ad23b6b)" d="M 103.126563 169.362275 
L 108.050092 169.362275 
L 108.050092 161.744753 
L 106.81921 154.571734 
L 108.050092 147.398716 
L 108.050092 137.055968 
L 103.126563 137.055968 
L 103.126563 147.398716 
L 104.357445 154.571734 
L 103.126563 161.744753 
L 103.126563 169.362275 
z
" style="fill:#ffffff;stroke:#000000;stroke-linejoin:miter;stroke-width:1.5;"/>
   </g>
   <g id="patch_8">
    <path clip-path="url(#pc85ad23b6b)" d="M 112.973621 175.432095 
L 117.897151 175.432095 
L 117.897151 164.003703 
L 116.666268 152.391554 
L 117.897151 140.779405 
L 117.897151 123.132545 
L 112.973621 123.132545 
L 112.973621 140.779405 
L 114.204504 152.391554 
L 112.973621 164.003703 
L 112.973621 175.432095 
z
" style="fill:#ffffff;stroke:#000000;stroke-linejoin:miter;stroke-width:1.5;"/>
   </g>
   <g id="patch_9">
    <path clip-path="url(#pc85ad23b6b)" d="M 122.82068 179.272185 
L 127.74421 179.272185 
L 127.74421 173.332571 
L 126.513327 164.679842 
L 127.74421 156.027114 
L 127.74421 140.301464 
L 122.82068 140.301464 
L 122.82068 156.027114 
L 124.051563 164.679842 
L 122.82068 173.332571 
L 122.82068 179.272185 
z
" style="fill:#ffffff;stroke:#000000;stroke-linejoin:miter;stroke-width:1.5;"/>
   </g>
   <g id="patch_10">
    <path clip-path="url(#pc85ad23b6b)" d="M 132.667739 174.88705 
L 137.591268 174.88705 
L 137.591268 170.129968 
L 136.360386 163.342005 
L 137.591268 156.554041 
L 137.591268 144.314977 
L 132.667739 144.314977 
L 132.667739 156.554041 
L 133.898621 163.342005 
L 132.667739 170.129968 
L 132.667739 174.88705 
z
" style="fill:#ffffff;stroke:#000000;stroke-linejoin:miter;stroke-width:1.5;"/>
   </g>
   <g id="patch_11">
    <path clip-path="url(#pc85ad23b6b)" d="M 142.514798 173.004167 
L 147.438327 173.004167 
L 147.438327 160.570025 
L 146.207445 151.004167 
L 147.438327 141.438308 
L 147.438327 129.920833 
L 142.514798 129.920833 
L 142.514798 141.438308 
L 143.74568 151.004167 
L 142.514798 160.570025 
L 142.514798 173.004167 
z
" style="fill:#ffffff;stroke:#000000;stroke-linejoin:miter;stroke-width:1.5;"/>
   </g>
   <g id="patch_12">
    <path clip-path="url(#pc85ad23b6b)" d="M 152.361857 180.634797 
L 157.285386 180.634797 
L 157.285386 178.24868 
L 156.054504 169.238401 
L 157.285386 160.228121 
L 157.285386 140.053716 
L 152.361857 140.053716 
L 152.361857 160.228121 
L 153.592739 169.238401 
L 152.361857 178.24868 
L 152.361857 180.634797 
z
" style="fill:#ffffff;stroke:#000000;stroke-linejoin:miter;stroke-width:1.5;"/>
   </g>
   <g id="patch_13">
    <path clip-path="url(#pc85ad23b6b)" d="M 162.208915 170.650563 
L 167.132445 170.650563 
L 167.132445 157.259889 
L 165.901563 146.148311 
L 167.132445 135.036733 
L 167.132445 120.605518 
L 162.208915 120.605518 
L 162.208915 135.036733 
L 163.439798 146.148311 
L 162.208915 157.259889 
L 162.208915 170.650563 
z
" style="fill:#ffffff;stroke:#000000;stroke-linejoin:miter;stroke-width:1.5;"/>
   </g>
   <g id="patch_14">
    <path clip-path="url(#pc85ad23b6b)" d="M 172.055974 176.051464 
L 176.979504 176.051464 
L 176.979504 163.200461 
L 175.748621 152.242905 
L 176.979504 141.285349 
L 176.979504 126.700113 
L 172.055974 126.700113 
L 172.055974 141.285349 
L 173.286857 152.242905 
L 172.055974 163.200461 
L 172.055974 176.051464 
z
" style="fill:#ffffff;stroke:#000000;stroke-linejoin:miter;stroke-width:1.5;"/>
   </g>
   <g id="patch_15">
    <path clip-path="url(#pc85ad23b6b)" d="M 181.903033 174.366779 
L 186.826562 174.366779 
L 186.826562 166.086612 
L 185.59568 156.603266 
L 186.826562 147.119919 
L 186.826562 131.655068 
L 181.903033 131.655068 
L 181.903033 147.119919 
L 183.133915 156.603266 
L 181.903033 166.086612 
L 181.903033 174.366779 
z
" style="fill:#ffffff;stroke:#000000;stroke-linejoin:miter;stroke-width:1.5;"/>
   </g>
   <g id="patch_16">
    <path clip-path="url(#pc85ad23b6b)" d="M 191.750092 179.693356 
L 196.673621 179.693356 
L 196.673621 164.829713 
L 195.442739 153.432095 
L 196.673621 142.034476 
L 196.673621 128.360023 
L 191.750092 128.360023 
L 191.750092 142.034476 
L 192.980974 153.432095 
L 191.750092 164.829713 
L 191.750092 179.693356 
z
" style="fill:#ffffff;stroke:#000000;stroke-linejoin:miter;stroke-width:1.5;"/>
   </g>
   <g id="patch_17">
    <path clip-path="url(#pc85ad23b6b)" d="M 201.597151 187.101014 
L 206.52068 187.101014 
L 206.52068 182.069624 
L 205.289798 173.202365 
L 206.52068 164.335106 
L 206.52068 147.164077 
L 201.597151 147.164077 
L 201.597151 164.335106 
L 202.828033 173.202365 
L 201.597151 182.069624 
L 201.597151 187.101014 
z
" style="fill:#ffffff;stroke:#000000;stroke-linejoin:miter;stroke-width:1.5;"/>
   </g>
   <g id="patch_18">
    <path clip-path="url(#pc85ad23b6b)" d="M 211.44421 159.378041 
L 216.367739 159.378041 
L 216.367739 146.141083 
L 215.136857 137.724887 
L 216.367739 129.308692 
L 216.367739 121.472635 
L 211.44421 121.472635 
L 211.44421 129.308692 
L 212.675092 137.724887 
L 211.44421 146.141083 
L 211.44421 159.378041 
z
" style="fill:#ffffff;stroke:#000000;stroke-linejoin:miter;stroke-width:1.5;"/>
   </g>
   <g id="patch_19">
    <path clip-path="url(#pc85ad23b6b)" d="M 221.291268 169.956869 
L 226.214798 169.956869 
L 226.214798 163.737269 
L 224.983915 156.008671 
L 226.214798 148.280074 
L 226.214798 135.148311 
L 221.291268 135.148311 
L 221.291268 148.280074 
L 222.522151 156.008671 
L 221.291268 163.737269 
L 221.291268 169.956869 
z
" style="fill:#ffffff;stroke:#000000;stroke-linejoin:miter;stroke-width:1.5;"/>
   </g>
   <g id="line2d_108">
    <path clip-path="url(#pc85ad23b6b)" d="M 64.96921 149.715878 
L 67.430974 149.715878 
" style="fill:none;stroke:#000000;stroke-linecap:square;stroke-width:1.5;"/>
   </g>
   <g id="line2d_109">
    <path clip-path="url(#pc85ad23b6b)" d="M 74.816268 157.396059 
L 77.278033 157.396059 
" style="fill:none;stroke:#000000;stroke-linecap:square;stroke-width:1.5;"/>
   </g>
   <g id="line2d_110">
    <path clip-path="url(#pc85ad23b6b)" d="M 84.663327 141.193356 
L 87.125092 141.193356 
" style="fill:none;stroke:#000000;stroke-linecap:square;stroke-width:1.5;"/>
   </g>
   <g id="line2d_111">
    <path clip-path="url(#pc85ad23b6b)" d="M 94.510386 131.630293 
L 96.972151 131.630293 
" style="fill:none;stroke:#000000;stroke-linecap:square;stroke-width:1.5;"/>
   </g>
   <g id="line2d_112">
    <path clip-path="url(#pc85ad23b6b)" d="M 104.357445 154.571734 
L 106.81921 154.571734 
" style="fill:none;stroke:#000000;stroke-linecap:square;stroke-width:1.5;"/>
   </g>
   <g id="line2d_113">
    <path clip-path="url(#pc85ad23b6b)" d="M 114.204504 152.391554 
L 116.666268 152.391554 
" style="fill:none;stroke:#000000;stroke-linecap:square;stroke-width:1.5;"/>
   </g>
   <g id="line2d_114">
    <path clip-path="url(#pc85ad23b6b)" d="M 124.051563 164.679842 
L 126.513327 164.679842 
" style="fill:none;stroke:#000000;stroke-linecap:square;stroke-width:1.5;"/>
   </g>
   <g id="line2d_115">
    <path clip-path="url(#pc85ad23b6b)" d="M 133.898621 163.342005 
L 136.360386 163.342005 
" style="fill:none;stroke:#000000;stroke-linecap:square;stroke-width:1.5;"/>
   </g>
   <g id="line2d_116">
    <path clip-path="url(#pc85ad23b6b)" d="M 143.74568 151.004167 
L 146.207445 151.004167 
" style="fill:none;stroke:#000000;stroke-linecap:square;stroke-width:1.5;"/>
   </g>
   <g id="line2d_117">
    <path clip-path="url(#pc85ad23b6b)" d="M 153.592739 169.238401 
L 156.054504 169.238401 
" style="fill:none;stroke:#000000;stroke-linecap:square;stroke-width:1.5;"/>
   </g>
   <g id="line2d_118">
    <path clip-path="url(#pc85ad23b6b)" d="M 163.439798 146.148311 
L 165.901563 146.148311 
" style="fill:none;stroke:#000000;stroke-linecap:square;stroke-width:1.5;"/>
   </g>
   <g id="line2d_119">
    <path clip-path="url(#pc85ad23b6b)" d="M 173.286857 152.242905 
L 175.748621 152.242905 
" style="fill:none;stroke:#000000;stroke-linecap:square;stroke-width:1.5;"/>
   </g>
   <g id="line2d_120">
    <path clip-path="url(#pc85ad23b6b)" d="M 183.133915 156.603266 
L 185.59568 156.603266 
" style="fill:none;stroke:#000000;stroke-linecap:square;stroke-width:1.5;"/>
   </g>
   <g id="line2d_121">
    <path clip-path="url(#pc85ad23b6b)" d="M 192.980974 153.432095 
L 195.442739 153.432095 
" style="fill:none;stroke:#000000;stroke-linecap:square;stroke-width:1.5;"/>
   </g>
   <g id="line2d_122">
    <path clip-path="url(#pc85ad23b6b)" d="M 202.828033 173.202365 
L 205.289798 173.202365 
" style="fill:none;stroke:#000000;stroke-linecap:square;stroke-width:1.5;"/>
   </g>
   <g id="line2d_123">
    <path clip-path="url(#pc85ad23b6b)" d="M 212.675092 137.724887 
L 215.136857 137.724887 
" style="fill:none;stroke:#000000;stroke-linecap:square;stroke-width:1.5;"/>
   </g>
   <g id="line2d_124">
    <path clip-path="url(#pc85ad23b6b)" d="M 222.522151 156.008671 
L 224.983915 156.008671 
" style="fill:none;stroke:#000000;stroke-linecap:square;stroke-width:1.5;"/>
   </g>
   <g id="patch_20">
    <path d="M 61.276563 216.6375 
L 61.276563 78.0375 
" style="fill:none;stroke:#000000;stroke-linecap:square;stroke-linejoin:miter;stroke-width:0.8;"/>
   </g>
   <g id="patch_21">
    <path d="M 228.676563 216.6375 
L 228.676563 78.0375 
" style="fill:none;stroke:#000000;stroke-linecap:square;stroke-linejoin:miter;stroke-width:0.8;"/>
   </g>
   <g id="patch_22">
    <path d="M 61.276563 216.6375 
L 228.676563 216.6375 
" style="fill:none;stroke:#000000;stroke-linecap:square;stroke-linejoin:miter;stroke-width:0.8;"/>
   </g>
   <g id="patch_23">
    <path d="M 61.276563 78.0375 
L 228.676563 78.0375 
" style="fill:none;stroke:#000000;stroke-linecap:square;stroke-linejoin:miter;stroke-width:0.8;"/>
   </g>
   <g id="text_24">
    <!-- * -->
    <defs>
     <path d="M 47.015625 60.890625 
L 29.5 51.421875 
L 47.015625 41.890625 
L 44.1875 37.109375 
L 27.78125 47.015625 
L 27.78125 28.609375 
L 22.21875 28.609375 
L 22.21875 47.015625 
L 5.8125 37.109375 
L 2.984375 41.890625 
L 20.515625 51.421875 
L 2.984375 60.890625 
L 5.8125 65.71875 
L 22.21875 55.8125 
L 22.21875 74.21875 
L 27.78125 74.21875 
L 27.78125 55.8125 
L 44.1875 65.71875 
z
" id="DejaVuSans-42"/>
    </defs>
    <g transform="translate(130.129504 98.40625)scale(0.2 -0.2)">
     <use xlink:href="#DejaVuSans-42"/>
    </g>
   </g>
   <g id="text_25">
    <!-- M:0.034 -->
    <defs>
     <path d="M 9.8125 72.90625 
L 24.515625 72.90625 
L 43.109375 23.296875 
L 61.8125 72.90625 
L 76.515625 72.90625 
L 76.515625 0 
L 66.890625 0 
L 66.890625 64.015625 
L 48.09375 14.015625 
L 38.1875 14.015625 
L 19.390625 64.015625 
L 19.390625 0 
L 9.8125 0 
z
" id="DejaVuSans-77"/>
     <path d="M 11.71875 12.40625 
L 22.015625 12.40625 
L 22.015625 0 
L 11.71875 0 
z
M 11.71875 51.703125 
L 22.015625 51.703125 
L 22.015625 39.3125 
L 11.71875 39.3125 
z
" id="DejaVuSans-58"/>
     <path d="M 40.578125 39.3125 
Q 47.65625 37.796875 51.625 33 
Q 55.609375 28.21875 55.609375 21.1875 
Q 55.609375 10.40625 48.1875 4.484375 
Q 40.765625 -1.421875 27.09375 -1.421875 
Q 22.515625 -1.421875 17.65625 -0.515625 
Q 12.796875 0.390625 7.625 2.203125 
L 7.625 11.71875 
Q 11.71875 9.328125 16.59375 8.109375 
Q 21.484375 6.890625 26.8125 6.890625 
Q 36.078125 6.890625 40.9375 10.546875 
Q 45.796875 14.203125 45.796875 21.1875 
Q 45.796875 27.640625 41.28125 31.265625 
Q 36.765625 34.90625 28.71875 34.90625 
L 20.21875 34.90625 
L 20.21875 43.015625 
L 29.109375 43.015625 
Q 36.375 43.015625 40.234375 45.921875 
Q 44.09375 48.828125 44.09375 54.296875 
Q 44.09375 59.90625 40.109375 62.90625 
Q 36.140625 65.921875 28.71875 65.921875 
Q 24.65625 65.921875 20.015625 65.03125 
Q 15.375 64.15625 9.8125 62.3125 
L 9.8125 71.09375 
Q 15.4375 72.65625 20.34375 73.4375 
Q 25.25 74.21875 29.59375 74.21875 
Q 40.828125 74.21875 47.359375 69.109375 
Q 53.90625 64.015625 53.90625 55.328125 
Q 53.90625 49.265625 50.4375 45.09375 
Q 46.96875 40.921875 40.578125 39.3125 
z
" id="DejaVuSans-51"/>
     <path d="M 37.796875 64.3125 
L 12.890625 25.390625 
L 37.796875 25.390625 
z
M 35.203125 72.90625 
L 47.609375 72.90625 
L 47.609375 25.390625 
L 58.015625 25.390625 
L 58.015625 17.1875 
L 47.609375 17.1875 
L 47.609375 0 
L 37.796875 0 
L 37.796875 17.1875 
L 4.890625 17.1875 
L 4.890625 26.703125 
z
" id="DejaVuSans-52"/>
    </defs>
    <g transform="translate(139.268566 68.1375)rotate(-90)scale(0.15 -0.15)">
     <use xlink:href="#DejaVuSans-77"/>
     <use x="86.279297" xlink:href="#DejaVuSans-58"/>
     <use x="119.970703" xlink:href="#DejaVuSans-48"/>
     <use x="183.59375" xlink:href="#DejaVuSans-46"/>
     <use x="215.380859" xlink:href="#DejaVuSans-48"/>
     <use x="279.003906" xlink:href="#DejaVuSans-51"/>
     <use x="342.626953" xlink:href="#DejaVuSans-52"/>
    </g>
   </g>
  </g>
 </g>
 <defs>
  <clipPath id="pc85ad23b6b">
   <rect height="138.6" width="167.4" x="61.276563" y="78.0375"/>
  </clipPath>
 </defs>
</svg>
