<?xml version="1.0" encoding="utf-8" standalone="no"?>
<!DOCTYPE svg PUBLIC "-//W3C//DTD SVG 1.1//EN"
  "http://www.w3.org/Graphics/SVG/1.1/DTD/svg11.dtd">
<!-- Created with matplotlib (http://matplotlib.org/) -->
<svg height="93.6pt" version="1.1" viewBox="0 0 108 93.6" width="108pt" xmlns="http://www.w3.org/2000/svg" xmlns:xlink="http://www.w3.org/1999/xlink">
 <defs>
  <style type="text/css">
*{stroke-linecap:butt;stroke-linejoin:round;}
  </style>
 </defs>
 <g id="figure_1">
  <g id="patch_1">
   <path d="M 0 93.6 
L 108 93.6 
L 108 0 
L 0 0 
z
" style="fill:#ffffff;"/>
  </g>
  <g id="legend_1">
   <g id="patch_2">
    <path d="M 7 66.7125 
L 47.628125 66.7125 
Q 49.628125 66.7125 49.628125 64.7125 
L 49.628125 7 
Q 49.628125 5 47.628125 5 
L 7 5 
Q 5 5 5 7 
L 5 64.7125 
Q 5 66.7125 7 66.7125 
z
" style="fill:#ffffff;opacity:0.8;stroke:#cccccc;stroke-linejoin:miter;"/>
   </g>
   <g id="line2d_1">
    <path d="M 9 13.098438 
L 29 13.098438 
" style="fill:none;stroke:#4b0082;stroke-linecap:square;stroke-width:2;"/>
   </g>
   <g id="line2d_2"/>
   <g id="text_1">
    <!-- N -->
    <defs>
     <path d="M 9.8125 72.90625 
L 23.09375 72.90625 
L 55.421875 11.921875 
L 55.421875 72.90625 
L 64.984375 72.90625 
L 64.984375 0 
L 51.703125 0 
L 19.390625 60.984375 
L 19.390625 0 
L 9.8125 0 
z
" id="DejaVuSans-4e"/>
    </defs>
    <g transform="translate(37 16.598438)scale(0.1 -0.1)">
     <use xlink:href="#DejaVuSans-4e"/>
    </g>
   </g>
   <g id="line2d_3">
    <path d="M 9 27.776563 
L 29 27.776563 
" style="fill:none;stroke:#8b0000;stroke-dasharray:2,2,2,2;stroke-dashoffset:0;stroke-width:2;"/>
   </g>
   <g id="line2d_4"/>
   <g id="text_2">
    <!-- L -->
    <defs>
     <path d="M 9.8125 72.90625 
L 19.671875 72.90625 
L 19.671875 8.296875 
L 55.171875 8.296875 
L 55.171875 0 
L 9.8125 0 
z
" id="DejaVuSans-4c"/>
    </defs>
    <g transform="translate(37 31.276563)scale(0.1 -0.1)">
     <use xlink:href="#DejaVuSans-4c"/>
    </g>
   </g>
   <g id="line2d_5">
    <path d="M 9 42.454688 
L 29 42.454688 
" style="fill:none;stroke:#4169e1;stroke-dasharray:4,2,4,2;stroke-dashoffset:0;stroke-width:2;"/>
   </g>
   <g id="line2d_6"/>
   <g id="text_3">
    <!-- M -->
    <defs>
     <path d="M 9.8125 72.90625 
L 24.515625 72.90625 
L 43.109375 23.296875 
L 61.8125 72.90625 
L 76.515625 72.90625 
L 76.515625 0 
L 66.890625 0 
L 66.890625 64.015625 
L 48.09375 14.015625 
L 38.1875 14.015625 
L 19.390625 64.015625 
L 19.390625 0 
L 9.8125 0 
z
" id="DejaVuSans-4d"/>
    </defs>
    <g transform="translate(37 45.954688)scale(0.1 -0.1)">
     <use xlink:href="#DejaVuSans-4d"/>
    </g>
   </g>
   <g id="line2d_7">
    <path d="M 9 57.132813 
L 29 57.132813 
" style="fill:none;stroke:#808000;stroke-dasharray:8,4,8,4;stroke-dashoffset:0;stroke-width:2;"/>
   </g>
   <g id="line2d_8"/>
   <g id="text_4">
    <!-- H -->
    <defs>
     <path d="M 9.8125 72.90625 
L 19.671875 72.90625 
L 19.671875 43.015625 
L 55.515625 43.015625 
L 55.515625 72.90625 
L 65.375 72.90625 
L 65.375 0 
L 55.515625 0 
L 55.515625 34.71875 
L 19.671875 34.71875 
L 19.671875 0 
L 9.8125 0 
z
" id="DejaVuSans-48"/>
    </defs>
    <g transform="translate(37 60.632813)scale(0.1 -0.1)">
     <use xlink:href="#DejaVuSans-48"/>
    </g>
   </g>
  </g>
 </g>
</svg>
