<?xml version="1.0" encoding="utf-8" standalone="no"?>
<!DOCTYPE svg PUBLIC "-//W3C//DTD SVG 1.1//EN"
  "http://www.w3.org/Graphics/SVG/1.1/DTD/svg11.dtd">
<!-- Created with matplotlib (http://matplotlib.org/) -->
<svg height="216pt" version="1.1" viewBox="0 0 216 216" width="216pt" xmlns="http://www.w3.org/2000/svg" xmlns:xlink="http://www.w3.org/1999/xlink">
 <defs>
  <style type="text/css">
*{stroke-linecap:butt;stroke-linejoin:round;}
  </style>
 </defs>
 <g id="figure_1">
  <g id="patch_1">
   <path d="M 0 216 
L 216 216 
L 216 0 
L 0 0 
z
" style="fill:#ffffff;"/>
  </g>
  <g id="axes_1">
   <g id="patch_2">
    <path d="M 27.25 181.64 
L 193.41 181.64 
L 193.41 17.28 
L 27.25 17.28 
z
" style="fill:#ffffff;"/>
   </g>
   <g id="matplotlib.axis_1">
    <g id="xtick_1">
     <g id="line2d_1">
      <path clip-path="url(#pa97bdc2c25)" d="M 27.25 181.64 
L 27.25 17.28 
" style="fill:none;stroke:#b0b0b0;stroke-linecap:square;stroke-width:0.8;"/>
     </g>
     <g id="line2d_2">
      <defs>
       <path d="M 0 0 
L 0 3.5 
" id="m92cb622996" style="stroke:#000000;stroke-width:0.8;"/>
      </defs>
      <g>
       <use style="stroke:#000000;stroke-width:0.8;" x="27.25" xlink:href="#m92cb622996" y="181.64"/>
      </g>
     </g>
     <g id="text_1">
      <!-- 0.0 -->
      <defs>
       <path d="M 4.15625 35.296875 
Q 4.15625 48 6.765625 55.734375 
Q 9.375 63.484375 14.515625 67.671875 
Q 19.671875 71.875 27.484375 71.875 
Q 33.25 71.875 37.59375 69.546875 
Q 41.9375 67.234375 44.765625 62.859375 
Q 47.609375 58.5 49.21875 52.21875 
Q 50.828125 45.953125 50.828125 35.296875 
Q 50.828125 22.703125 48.234375 14.96875 
Q 45.65625 7.234375 40.5 3 
Q 35.359375 -1.21875 27.484375 -1.21875 
Q 17.140625 -1.21875 11.234375 6.203125 
Q 4.15625 15.140625 4.15625 35.296875 
z
M 13.1875 35.296875 
Q 13.1875 17.671875 17.3125 11.828125 
Q 21.4375 6 27.484375 6 
Q 33.546875 6 37.671875 11.859375 
Q 41.796875 17.71875 41.796875 35.296875 
Q 41.796875 52.984375 37.671875 58.78125 
Q 33.546875 64.59375 27.390625 64.59375 
Q 21.34375 64.59375 17.71875 59.46875 
Q 13.1875 52.9375 13.1875 35.296875 
z
" id="ArialMT-30"/>
       <path d="M 9.078125 0 
L 9.078125 10.015625 
L 19.09375 10.015625 
L 19.09375 0 
z
" id="ArialMT-2e"/>
      </defs>
      <g transform="translate(15.435 200.808281)scale(0.17 -0.17)">
       <use xlink:href="#ArialMT-30"/>
       <use x="55.615234" xlink:href="#ArialMT-2e"/>
       <use x="83.398438" xlink:href="#ArialMT-30"/>
      </g>
     </g>
    </g>
    <g id="xtick_2">
     <g id="line2d_3">
      <path clip-path="url(#pa97bdc2c25)" d="M 110.33 181.64 
L 110.33 17.28 
" style="fill:none;stroke:#b0b0b0;stroke-linecap:square;stroke-width:0.8;"/>
     </g>
     <g id="line2d_4">
      <g>
       <use style="stroke:#000000;stroke-width:0.8;" x="110.33" xlink:href="#m92cb622996" y="181.64"/>
      </g>
     </g>
     <g id="text_2">
      <!-- 0.5 -->
      <defs>
       <path d="M 4.15625 18.75 
L 13.375 19.53125 
Q 14.40625 12.796875 18.140625 9.390625 
Q 21.875 6 27.15625 6 
Q 33.5 6 37.890625 10.78125 
Q 42.28125 15.578125 42.28125 23.484375 
Q 42.28125 31 38.0625 35.34375 
Q 33.84375 39.703125 27 39.703125 
Q 22.75 39.703125 19.328125 37.765625 
Q 15.921875 35.84375 13.96875 32.765625 
L 5.71875 33.84375 
L 12.640625 70.609375 
L 48.25 70.609375 
L 48.25 62.203125 
L 19.671875 62.203125 
L 15.828125 42.96875 
Q 22.265625 47.46875 29.34375 47.46875 
Q 38.71875 47.46875 45.15625 40.96875 
Q 51.609375 34.46875 51.609375 24.265625 
Q 51.609375 14.546875 45.953125 7.46875 
Q 39.0625 -1.21875 27.15625 -1.21875 
Q 17.390625 -1.21875 11.203125 4.25 
Q 5.03125 9.71875 4.15625 18.75 
z
" id="ArialMT-35"/>
      </defs>
      <g transform="translate(98.515 200.808281)scale(0.17 -0.17)">
       <use xlink:href="#ArialMT-30"/>
       <use x="55.615234" xlink:href="#ArialMT-2e"/>
       <use x="83.398438" xlink:href="#ArialMT-35"/>
      </g>
     </g>
    </g>
    <g id="xtick_3">
     <g id="line2d_5">
      <path clip-path="url(#pa97bdc2c25)" d="M 193.41 181.64 
L 193.41 17.28 
" style="fill:none;stroke:#b0b0b0;stroke-linecap:square;stroke-width:0.8;"/>
     </g>
     <g id="line2d_6">
      <g>
       <use style="stroke:#000000;stroke-width:0.8;" x="193.41" xlink:href="#m92cb622996" y="181.64"/>
      </g>
     </g>
     <g id="text_3">
      <!-- 1.0 -->
      <defs>
       <path d="M 37.25 0 
L 28.46875 0 
L 28.46875 56 
Q 25.296875 52.984375 20.140625 49.953125 
Q 14.984375 46.921875 10.890625 45.40625 
L 10.890625 53.90625 
Q 18.265625 57.375 23.78125 62.296875 
Q 29.296875 67.234375 31.59375 71.875 
L 37.25 71.875 
z
" id="ArialMT-31"/>
      </defs>
      <g transform="translate(181.595 200.808281)scale(0.17 -0.17)">
       <use xlink:href="#ArialMT-31"/>
       <use x="55.615234" xlink:href="#ArialMT-2e"/>
       <use x="83.398438" xlink:href="#ArialMT-30"/>
      </g>
     </g>
    </g>
   </g>
   <g id="matplotlib.axis_2">
    <g id="ytick_1">
     <g id="line2d_7">
      <path clip-path="url(#pa97bdc2c25)" d="M 27.25 181.64 
L 193.41 181.64 
" style="fill:none;stroke:#b0b0b0;stroke-linecap:square;stroke-width:0.8;"/>
     </g>
     <g id="line2d_8">
      <defs>
       <path d="M 0 0 
L -3.5 0 
" id="mb0dadf0ce9" style="stroke:#000000;stroke-width:0.8;"/>
      </defs>
      <g>
       <use style="stroke:#000000;stroke-width:0.8;" x="27.25" xlink:href="#mb0dadf0ce9" y="181.64"/>
      </g>
     </g>
     <g id="text_4">
      <!-- 0 -->
      <g transform="translate(10.796406 187.724141)scale(0.17 -0.17)">
       <use xlink:href="#ArialMT-30"/>
      </g>
     </g>
    </g>
    <g id="ytick_2">
     <g id="line2d_9">
      <path clip-path="url(#pa97bdc2c25)" d="M 27.25 99.46 
L 193.41 99.46 
" style="fill:none;stroke:#b0b0b0;stroke-linecap:square;stroke-width:0.8;"/>
     </g>
     <g id="line2d_10">
      <g>
       <use style="stroke:#000000;stroke-width:0.8;" x="27.25" xlink:href="#mb0dadf0ce9" y="99.46"/>
      </g>
     </g>
     <g id="text_5">
      <!-- 1 -->
      <g transform="translate(10.796406 105.544141)scale(0.17 -0.17)">
       <use xlink:href="#ArialMT-31"/>
      </g>
     </g>
    </g>
    <g id="ytick_3">
     <g id="line2d_11">
      <path clip-path="url(#pa97bdc2c25)" d="M 27.25 17.28 
L 193.41 17.28 
" style="fill:none;stroke:#b0b0b0;stroke-linecap:square;stroke-width:0.8;"/>
     </g>
     <g id="line2d_12">
      <g>
       <use style="stroke:#000000;stroke-width:0.8;" x="27.25" xlink:href="#mb0dadf0ce9" y="17.28"/>
      </g>
     </g>
     <g id="text_6">
      <!-- 2 -->
      <defs>
       <path d="M 50.34375 8.453125 
L 50.34375 0 
L 3.03125 0 
Q 2.9375 3.171875 4.046875 6.109375 
Q 5.859375 10.9375 9.828125 15.625 
Q 13.8125 20.3125 21.34375 26.46875 
Q 33.015625 36.03125 37.109375 41.625 
Q 41.21875 47.21875 41.21875 52.203125 
Q 41.21875 57.421875 37.46875 61 
Q 33.734375 64.59375 27.734375 64.59375 
Q 21.390625 64.59375 17.578125 60.78125 
Q 13.765625 56.984375 13.71875 50.25 
L 4.6875 51.171875 
Q 5.609375 61.28125 11.65625 66.578125 
Q 17.71875 71.875 27.9375 71.875 
Q 38.234375 71.875 44.234375 66.15625 
Q 50.25 60.453125 50.25 52 
Q 50.25 47.703125 48.484375 43.546875 
Q 46.734375 39.40625 42.65625 34.8125 
Q 38.578125 30.21875 29.109375 22.21875 
Q 21.1875 15.578125 18.9375 13.203125 
Q 16.703125 10.84375 15.234375 8.453125 
z
" id="ArialMT-32"/>
      </defs>
      <g transform="translate(10.796406 23.364141)scale(0.17 -0.17)">
       <use xlink:href="#ArialMT-32"/>
      </g>
     </g>
    </g>
   </g>
   <g id="line2d_13">
    <path clip-path="url(#pa97bdc2c25)" d="M 27.25 178.683787 
L 28.928384 178.439828 
L 30.606768 178.176168 
L 32.285152 177.891292 
L 33.963535 177.583576 
L 35.641919 177.251292 
L 37.320303 176.892595 
L 38.998687 176.505522 
L 40.677071 176.087987 
L 42.355455 175.637779 
L 44.033838 175.152554 
L 45.712222 174.62984 
L 47.390606 174.06703 
L 49.06899 173.461383 
L 50.747374 172.810027 
L 52.425758 172.109962 
L 54.104141 171.358063 
L 55.782525 170.55109 
L 57.460909 169.685695 
L 59.139293 168.75844 
L 60.817677 167.765808 
L 62.496061 166.704228 
L 64.174444 165.570095 
L 65.852828 164.359803 
L 67.531212 163.069773 
L 69.209596 161.696496 
L 70.88798 160.236574 
L 72.566364 158.686767 
L 74.244747 157.044048 
L 75.923131 155.305656 
L 77.601515 153.469164 
L 79.279899 151.532536 
L 80.958283 149.494197 
L 82.636667 147.353102 
L 84.315051 145.108802 
L 85.993434 142.761507 
L 87.671818 140.31215 
L 89.350202 137.762441 
L 91.028586 135.114913 
L 92.70697 132.37296 
L 94.385354 129.540858 
L 96.063737 126.623775 
L 97.742121 123.627766 
L 99.420505 120.559741 
L 101.098889 117.427431 
L 102.777273 114.239318 
L 104.455657 111.004561 
L 106.13404 107.732893 
L 107.812424 104.434517 
L 109.490808 101.119976 
L 111.169192 97.800024 
L 112.847576 94.485483 
L 114.52596 91.187107 
L 116.204343 87.915439 
L 117.882727 84.680682 
L 119.561111 81.492569 
L 121.239495 78.360259 
L 122.917879 75.292234 
L 124.596263 72.296225 
L 126.274646 69.379142 
L 127.95303 66.54704 
L 129.631414 63.805087 
L 131.309798 61.157559 
L 132.988182 58.60785 
L 134.666566 56.158493 
L 136.344949 53.811198 
L 138.023333 51.566898 
L 139.701717 49.425803 
L 141.380101 47.387464 
L 143.058485 45.450836 
L 144.736869 43.614344 
L 146.415253 41.875952 
L 148.093636 40.233233 
L 149.77202 38.683426 
L 151.450404 37.223504 
L 153.128788 35.850227 
L 154.807172 34.560197 
L 156.485556 33.349905 
L 158.163939 32.215772 
L 159.842323 31.154192 
L 161.520707 30.16156 
L 163.199091 29.234305 
L 164.877475 28.36891 
L 166.555859 27.561937 
L 168.234242 26.810038 
L 169.912626 26.109973 
L 171.59101 25.458617 
L 173.269394 24.85297 
L 174.947778 24.29016 
L 176.626162 23.767446 
L 178.304545 23.282221 
L 179.982929 22.832013 
L 181.661313 22.414478 
L 183.339697 22.027405 
L 185.018081 21.668708 
L 186.696465 21.336424 
L 188.374848 21.028708 
L 190.053232 20.743832 
L 191.731616 20.480172 
L 193.41 20.236213 
" style="fill:none;stroke:#4b0082;stroke-dasharray:16,4,16,4;stroke-dashoffset:0;stroke-width:2;"/>
   </g>
   <g id="patch_3">
    <path d="M 27.25 181.64 
L 27.25 17.28 
" style="fill:none;stroke:#000000;stroke-linecap:square;stroke-linejoin:miter;stroke-width:0.8;"/>
   </g>
   <g id="patch_4">
    <path d="M 193.41 181.64 
L 193.41 17.28 
" style="fill:none;stroke:#000000;stroke-linecap:square;stroke-linejoin:miter;stroke-width:0.8;"/>
   </g>
   <g id="patch_5">
    <path d="M 27.25 181.64 
L 193.41 181.64 
" style="fill:none;stroke:#000000;stroke-linecap:square;stroke-linejoin:miter;stroke-width:0.8;"/>
   </g>
   <g id="patch_6">
    <path d="M 27.25 17.28 
L 193.41 17.28 
" style="fill:none;stroke:#000000;stroke-linecap:square;stroke-linejoin:miter;stroke-width:0.8;"/>
   </g>
  </g>
 </g>
 <defs>
  <clipPath id="pa97bdc2c25">
   <rect height="164.36" width="166.16" x="27.25" y="17.28"/>
  </clipPath>
 </defs>
</svg>
