<?xml version="1.0" encoding="utf-8" standalone="no"?>
<!DOCTYPE svg PUBLIC "-//W3C//DTD SVG 1.1//EN"
  "http://www.w3.org/Graphics/SVG/1.1/DTD/svg11.dtd">
<!-- Created with matplotlib (https://matplotlib.org/) -->
<svg height="315.505281pt" version="1.1" viewBox="0 0 406.044062 315.505281" width="406.044062pt" xmlns="http://www.w3.org/2000/svg" xmlns:xlink="http://www.w3.org/1999/xlink">
 <defs>
  <style type="text/css">
*{stroke-linecap:butt;stroke-linejoin:round;}
  </style>
 </defs>
 <g id="figure_1">
  <g id="patch_1">
   <path d="M 0 315.505281 
L 406.044062 315.505281 
L 406.044062 0 
L 0 0 
z
" style="fill:#ffffff;"/>
  </g>
  <g id="axes_1">
   <g id="patch_2">
    <path d="M 26.434062 281.185594 
L 383.554063 281.185594 
L 383.554063 15.073594 
L 26.434062 15.073594 
z
" style="fill:#ffffff;"/>
   </g>
   <g id="matplotlib.axis_1">
    <g id="xtick_1">
     <g id="line2d_1">
      <path clip-path="url(#p4d0feefb9e)" d="M 26.434062 281.185594 
L 26.434062 15.073594 
" style="fill:none;stroke:#b0b0b0;stroke-linecap:square;stroke-width:0.8;"/>
     </g>
     <g id="line2d_2">
      <defs>
       <path d="M 0 0 
L 0 3.5 
" id="me98585a51b" style="stroke:#000000;stroke-width:0.8;"/>
      </defs>
      <g>
       <use style="stroke:#000000;stroke-width:0.8;" x="26.434062" xlink:href="#me98585a51b" y="281.185594"/>
      </g>
     </g>
     <g id="text_1">
      <!-- 0.0 -->
      <defs>
       <path d="M 4.15625 35.296875 
Q 4.15625 48 6.765625 55.734375 
Q 9.375 63.484375 14.515625 67.671875 
Q 19.671875 71.875 27.484375 71.875 
Q 33.25 71.875 37.59375 69.546875 
Q 41.9375 67.234375 44.765625 62.859375 
Q 47.609375 58.5 49.21875 52.21875 
Q 50.828125 45.953125 50.828125 35.296875 
Q 50.828125 22.703125 48.234375 14.96875 
Q 45.65625 7.234375 40.5 3 
Q 35.359375 -1.21875 27.484375 -1.21875 
Q 17.140625 -1.21875 11.234375 6.203125 
Q 4.15625 15.140625 4.15625 35.296875 
z
M 13.1875 35.296875 
Q 13.1875 17.671875 17.3125 11.828125 
Q 21.4375 6 27.484375 6 
Q 33.546875 6 37.671875 11.859375 
Q 41.796875 17.71875 41.796875 35.296875 
Q 41.796875 52.984375 37.671875 58.78125 
Q 33.546875 64.59375 27.390625 64.59375 
Q 21.34375 64.59375 17.71875 59.46875 
Q 13.1875 52.9375 13.1875 35.296875 
z
" id="ArialMT-48"/>
       <path d="M 9.078125 0 
L 9.078125 10.015625 
L 19.09375 10.015625 
L 19.09375 0 
z
" id="ArialMT-46"/>
      </defs>
      <g transform="translate(11.144062 303.932781)scale(0.22 -0.22)">
       <use xlink:href="#ArialMT-48"/>
       <use x="55.615234" xlink:href="#ArialMT-46"/>
       <use x="83.398438" xlink:href="#ArialMT-48"/>
      </g>
     </g>
    </g>
    <g id="xtick_2">
     <g id="line2d_3">
      <path clip-path="url(#p4d0feefb9e)" d="M 204.994063 281.185594 
L 204.994063 15.073594 
" style="fill:none;stroke:#b0b0b0;stroke-linecap:square;stroke-width:0.8;"/>
     </g>
     <g id="line2d_4">
      <g>
       <use style="stroke:#000000;stroke-width:0.8;" x="204.994063" xlink:href="#me98585a51b" y="281.185594"/>
      </g>
     </g>
     <g id="text_2">
      <!-- 0.5 -->
      <defs>
       <path d="M 4.15625 18.75 
L 13.375 19.53125 
Q 14.40625 12.796875 18.140625 9.390625 
Q 21.875 6 27.15625 6 
Q 33.5 6 37.890625 10.78125 
Q 42.28125 15.578125 42.28125 23.484375 
Q 42.28125 31 38.0625 35.34375 
Q 33.84375 39.703125 27 39.703125 
Q 22.75 39.703125 19.328125 37.765625 
Q 15.921875 35.84375 13.96875 32.765625 
L 5.71875 33.84375 
L 12.640625 70.609375 
L 48.25 70.609375 
L 48.25 62.203125 
L 19.671875 62.203125 
L 15.828125 42.96875 
Q 22.265625 47.46875 29.34375 47.46875 
Q 38.71875 47.46875 45.15625 40.96875 
Q 51.609375 34.46875 51.609375 24.265625 
Q 51.609375 14.546875 45.953125 7.46875 
Q 39.0625 -1.21875 27.15625 -1.21875 
Q 17.390625 -1.21875 11.203125 4.25 
Q 5.03125 9.71875 4.15625 18.75 
z
" id="ArialMT-53"/>
      </defs>
      <g transform="translate(189.704063 303.932781)scale(0.22 -0.22)">
       <use xlink:href="#ArialMT-48"/>
       <use x="55.615234" xlink:href="#ArialMT-46"/>
       <use x="83.398438" xlink:href="#ArialMT-53"/>
      </g>
     </g>
    </g>
    <g id="xtick_3">
     <g id="line2d_5">
      <path clip-path="url(#p4d0feefb9e)" d="M 383.554063 281.185594 
L 383.554063 15.073594 
" style="fill:none;stroke:#b0b0b0;stroke-linecap:square;stroke-width:0.8;"/>
     </g>
     <g id="line2d_6">
      <g>
       <use style="stroke:#000000;stroke-width:0.8;" x="383.554063" xlink:href="#me98585a51b" y="281.185594"/>
      </g>
     </g>
     <g id="text_3">
      <!-- 1.0 -->
      <defs>
       <path d="M 37.25 0 
L 28.46875 0 
L 28.46875 56 
Q 25.296875 52.984375 20.140625 49.953125 
Q 14.984375 46.921875 10.890625 45.40625 
L 10.890625 53.90625 
Q 18.265625 57.375 23.78125 62.296875 
Q 29.296875 67.234375 31.59375 71.875 
L 37.25 71.875 
z
" id="ArialMT-49"/>
      </defs>
      <g transform="translate(368.264063 303.932781)scale(0.22 -0.22)">
       <use xlink:href="#ArialMT-49"/>
       <use x="55.615234" xlink:href="#ArialMT-46"/>
       <use x="83.398438" xlink:href="#ArialMT-48"/>
      </g>
     </g>
    </g>
   </g>
   <g id="matplotlib.axis_2">
    <g id="ytick_1">
     <g id="line2d_7">
      <path clip-path="url(#p4d0feefb9e)" d="M 26.434062 281.185594 
L 383.554063 281.185594 
" style="fill:none;stroke:#b0b0b0;stroke-linecap:square;stroke-width:0.8;"/>
     </g>
     <g id="line2d_8">
      <defs>
       <path d="M 0 0 
L -3.5 0 
" id="maa247abb4d" style="stroke:#000000;stroke-width:0.8;"/>
      </defs>
      <g>
       <use style="stroke:#000000;stroke-width:0.8;" x="26.434062" xlink:href="#maa247abb4d" y="281.185594"/>
      </g>
     </g>
     <g id="text_4">
      <!-- 0 -->
      <g transform="translate(7.2 289.059187)scale(0.22 -0.22)">
       <use xlink:href="#ArialMT-48"/>
      </g>
     </g>
    </g>
    <g id="ytick_2">
     <g id="line2d_9">
      <path clip-path="url(#p4d0feefb9e)" d="M 26.434062 148.129594 
L 383.554063 148.129594 
" style="fill:none;stroke:#b0b0b0;stroke-linecap:square;stroke-width:0.8;"/>
     </g>
     <g id="line2d_10">
      <g>
       <use style="stroke:#000000;stroke-width:0.8;" x="26.434062" xlink:href="#maa247abb4d" y="148.129594"/>
      </g>
     </g>
     <g id="text_5">
      <!-- 1 -->
      <g transform="translate(7.2 156.003187)scale(0.22 -0.22)">
       <use xlink:href="#ArialMT-49"/>
      </g>
     </g>
    </g>
    <g id="ytick_3">
     <g id="line2d_11">
      <path clip-path="url(#p4d0feefb9e)" d="M 26.434062 15.073594 
L 383.554063 15.073594 
" style="fill:none;stroke:#b0b0b0;stroke-linecap:square;stroke-width:0.8;"/>
     </g>
     <g id="line2d_12">
      <g>
       <use style="stroke:#000000;stroke-width:0.8;" x="26.434062" xlink:href="#maa247abb4d" y="15.073594"/>
      </g>
     </g>
     <g id="text_6">
      <!-- 2 -->
      <defs>
       <path d="M 50.34375 8.453125 
L 50.34375 0 
L 3.03125 0 
Q 2.9375 3.171875 4.046875 6.109375 
Q 5.859375 10.9375 9.828125 15.625 
Q 13.8125 20.3125 21.34375 26.46875 
Q 33.015625 36.03125 37.109375 41.625 
Q 41.21875 47.21875 41.21875 52.203125 
Q 41.21875 57.421875 37.46875 61 
Q 33.734375 64.59375 27.734375 64.59375 
Q 21.390625 64.59375 17.578125 60.78125 
Q 13.765625 56.984375 13.71875 50.25 
L 4.6875 51.171875 
Q 5.609375 61.28125 11.65625 66.578125 
Q 17.71875 71.875 27.9375 71.875 
Q 38.234375 71.875 44.234375 66.15625 
Q 50.25 60.453125 50.25 52 
Q 50.25 47.703125 48.484375 43.546875 
Q 46.734375 39.40625 42.65625 34.8125 
Q 38.578125 30.21875 29.109375 22.21875 
Q 21.1875 15.578125 18.9375 13.203125 
Q 16.703125 10.84375 15.234375 8.453125 
z
" id="ArialMT-50"/>
      </defs>
      <g transform="translate(7.2 22.947187)scale(0.22 -0.22)">
       <use xlink:href="#ArialMT-50"/>
      </g>
     </g>
    </g>
   </g>
   <g id="line2d_13">
    <path clip-path="url(#p4d0feefb9e)" d="M 26.434062 276.399247 
L 30.041335 276.004258 
L 33.648608 275.577373 
L 37.255881 275.116135 
L 40.863153 274.617919 
L 44.470426 274.079925 
L 48.077699 273.499165 
L 51.684972 272.872463 
L 55.292244 272.196441 
L 58.899517 271.467517 
L 62.50679 270.6819 
L 66.114063 269.835584 
L 69.721335 268.924349 
L 73.328608 267.943758 
L 76.935881 266.889161 
L 80.543153 265.755699 
L 84.150426 264.538314 
L 87.757699 263.23176 
L 91.364972 261.830617 
L 94.972244 260.329317 
L 98.579517 258.722167 
L 102.18679 257.003383 
L 105.794063 255.167132 
L 109.401335 253.207571 
L 113.008608 251.118909 
L 116.615881 248.895464 
L 120.223153 246.531733 
L 123.830426 244.022472 
L 127.437699 241.362778 
L 131.044972 238.548183 
L 134.652244 235.574755 
L 138.259517 232.439198 
L 141.86679 229.138965 
L 145.474063 225.672361 
L 149.081335 222.038659 
L 152.688608 218.238201 
L 156.295881 214.272495 
L 159.903153 210.144312 
L 163.510426 205.857753 
L 167.117699 201.418311 
L 170.724972 196.832911 
L 174.332244 192.109921 
L 177.939517 187.259141 
L 181.54679 182.291764 
L 185.154063 177.220303 
L 188.761335 172.058494 
L 192.368608 166.821162 
L 195.975881 161.52407 
L 199.583153 156.183735 
L 203.190426 150.817228 
L 206.797699 145.441959 
L 210.404972 140.075453 
L 214.012244 134.735118 
L 217.619517 129.438026 
L 221.22679 124.200694 
L 224.834063 119.038884 
L 228.441335 113.967423 
L 232.048608 109.000046 
L 235.655881 104.149266 
L 239.263153 99.426276 
L 242.870426 94.840876 
L 246.477699 90.401435 
L 250.084972 86.114875 
L 253.692244 81.986692 
L 257.299517 78.020987 
L 260.90679 74.220528 
L 264.514063 70.586826 
L 268.121335 67.120223 
L 271.728608 63.819989 
L 275.335881 60.684433 
L 278.943153 57.711005 
L 282.550426 54.89641 
L 286.157699 52.236716 
L 289.764972 49.727454 
L 293.372244 47.363724 
L 296.979517 45.140278 
L 300.58679 43.051617 
L 304.194063 41.092056 
L 307.801335 39.255804 
L 311.408608 37.537021 
L 315.015881 35.929871 
L 318.623153 34.428571 
L 322.230426 33.027428 
L 325.837699 31.720873 
L 329.444972 30.503488 
L 333.052244 29.370027 
L 336.659517 28.31543 
L 340.26679 27.334839 
L 343.874063 26.423604 
L 347.481335 25.577288 
L 351.088608 24.791671 
L 354.695881 24.062747 
L 358.303153 23.386724 
L 361.910426 22.760022 
L 365.517699 22.179263 
L 369.124972 21.641268 
L 372.732244 21.143053 
L 376.339517 20.681815 
L 379.94679 20.254929 
L 383.554063 19.85994 
" style="fill:none;stroke:#000000;stroke-linecap:square;stroke-width:1.5;"/>
   </g>
   <g id="patch_3">
    <path d="M 26.434062 281.185594 
L 26.434062 15.073594 
" style="fill:none;stroke:#000000;stroke-linecap:square;stroke-linejoin:miter;stroke-width:0.8;"/>
   </g>
   <g id="patch_4">
    <path d="M 383.554063 281.185594 
L 383.554063 15.073594 
" style="fill:none;stroke:#000000;stroke-linecap:square;stroke-linejoin:miter;stroke-width:0.8;"/>
   </g>
   <g id="patch_5">
    <path d="M 26.434062 281.185594 
L 383.554063 281.185594 
" style="fill:none;stroke:#000000;stroke-linecap:square;stroke-linejoin:miter;stroke-width:0.8;"/>
   </g>
   <g id="patch_6">
    <path d="M 26.434062 15.073594 
L 383.554063 15.073594 
" style="fill:none;stroke:#000000;stroke-linecap:square;stroke-linejoin:miter;stroke-width:0.8;"/>
   </g>
  </g>
 </g>
 <defs>
  <clipPath id="p4d0feefb9e">
   <rect height="266.112" width="357.12" x="26.434062" y="15.073594"/>
  </clipPath>
 </defs>
</svg>
